<?xml version="1.0" encoding="UTF-8" standalone="no"?>
<!DOCTYPE svg PUBLIC "-//W3C//DTD SVG 1.0//EN"
 "http://www.w3.org/TR/2001/REC-SVG-20010904/DTD/svg10.dtd" [
 <!ATTLIST svg xmlns:xlink CDATA #FIXED "http://www.w3.org/1999/xlink">
]>
<!-- Generated by Graphviz version 2.20.2 (Tue Mar &#160;2 19:03:41 UTC 2010)
 -->
<!-- Title: XML Pages: 1 -->
<svg width="1593pt" height="944pt"
 viewBox="0.00 0.00 1593.00 944.00" xmlns="http://www.w3.org/2000/svg" xmlns:xlink="http://www.w3.org/1999/xlink">
<g id="graph0" class="graph" transform="scale(1 1) rotate(0) translate(4 940)">
<title>XML</title>
<polygon style="fill:white;stroke:white;" points="-4,4 -4,-940 1589,-940 1589,4 -4,4"/>
<!-- start -->
<g id="node1" class="node"><title>start</title>
<ellipse style="fill:none;stroke:black;" cx="869" cy="-918" rx="34.0492" ry="18"/>
<text text-anchor="middle" x="869" y="-913.9" style="font-family:Times New Roman;font-size:14.00;">start</text>
</g>
<!-- open -->
<g id="node3" class="node"><title>open</title>
<ellipse style="fill:none;stroke:black;" cx="457" cy="-738" rx="34.2406" ry="18"/>
<text text-anchor="middle" x="457" y="-733.9" style="font-family:Times New Roman;font-size:14.00;">open</text>
</g>
<!-- start&#45;&gt;open -->
<g id="edge2" class="edge"><title>start&#45;&gt;open</title>
<path style="fill:none;stroke:black;" d="M843,-906C772,-875 574,-789 492,-754"/>
<polygon style="fill:black;stroke:black;" points="493.56,-750.863 483,-750 490.717,-757.26 493.56,-750.863"/>
<text text-anchor="middle" x="709" y="-823.9" style="font-family:Times New Roman;font-size:14.00;">&lt;</text>
</g>
<!-- error -->
<g id="node5" class="node"><title>error</title>
<ellipse style="fill:none;stroke:black;" cx="463" cy="-18" rx="34.9399" ry="18"/>
<text text-anchor="middle" x="463" y="-13.9" style="font-family:Times New Roman;font-size:14.00;">error</text>
</g>
<!-- start&#45;&gt;error -->
<g id="edge4" class="edge"><title>start&#45;&gt;error</title>
<path style="fill:none;stroke:black;" d="M835,-917C694,-914 165,-900 92,-882 47,-870 0,-875 0,-828 0,-828 0,-828 0,-108 0,-71 29,-68 62,-54 125,-26 327,-19 418,-18"/>
<polygon style="fill:black;stroke:black;" points="418,-21.5001 428,-18 418,-14.5001 418,-21.5001"/>
<text text-anchor="middle" x="6" y="-463.9" style="font-family:Times New Roman;font-size:14.00;">&gt;</text>
</g>
<!-- text -->
<g id="node7" class="node"><title>text</title>
<ellipse style="fill:none;stroke:black;" cx="59" cy="-828" rx="30.7734" ry="18"/>
<text text-anchor="middle" x="59" y="-823.9" style="font-family:Times New Roman;font-size:14.00;">text</text>
</g>
<!-- start&#45;&gt;text -->
<g id="edge6" class="edge"><title>start&#45;&gt;text</title>
<path style="fill:none;stroke:black;" d="M835,-918C697,-916 189,-908 122,-882 106,-876 91,-863 80,-852"/>
<polygon style="fill:black;stroke:black;" points="82.2191,-849.221 73,-844 76.9511,-853.831 82.2191,-849.221"/>
<text text-anchor="middle" x="153" y="-868.9" style="font-family:Times New Roman;font-size:14.00;">[^&lt;&gt;]</text>
</g>
<!-- open&#45;&gt;error -->
<g id="edge68" class="edge"><title>open&#45;&gt;error</title>
<path style="fill:none;stroke:black;" d="M430,-727C402,-713 362,-686 361,-648 361,-648 361,-648 361,-108 362,-72 397,-47 426,-33"/>
<polygon style="fill:black;stroke:black;" points="427.283,-36.2598 435,-29 424.44,-29.8631 427.283,-36.2598"/>
<text text-anchor="middle" x="452" y="-373.9" style="font-family:Times New Roman;font-size:14.00;">[&lt;&gt;&quot;()=?{\[\]},;.:\&#45;#&#39;+*~]</text>
</g>
<!-- comment0 -->
<g id="node12" class="node"><title>comment0</title>
<ellipse style="fill:none;stroke:black;" cx="271" cy="-468" rx="61.8445" ry="18"/>
<text text-anchor="middle" x="271" y="-463.9" style="font-family:Times New Roman;font-size:14.00;">comment0</text>
</g>
<!-- open&#45;&gt;comment0 -->
<g id="edge14" class="edge"><title>open&#45;&gt;comment0</title>
<path style="fill:none;stroke:black;" d="M426,-731C397,-724 359,-713 347,-702 290,-644 276,-545 273,-496"/>
<polygon style="fill:black;stroke:black;" points="276.478,-495.602 272,-486 269.512,-496.299 276.478,-495.602"/>
<text text-anchor="middle" x="299" y="-598.9" style="font-family:Times New Roman;font-size:14.00;">!</text>
</g>
<!-- close -->
<g id="node41" class="node"><title>close</title>
<ellipse style="fill:none;stroke:black;" cx="1395" cy="-648" rx="34.2406" ry="18"/>
<text text-anchor="middle" x="1395" y="-643.9" style="font-family:Times New Roman;font-size:14.00;">close</text>
</g>
<!-- open&#45;&gt;close -->
<g id="edge54" class="edge"><title>open&#45;&gt;close</title>
<path style="fill:none;stroke:black;" d="M491,-735C633,-721 1189,-667 1351,-652"/>
<polygon style="fill:black;stroke:black;" points="1351.4,-655.478 1361,-651 1350.7,-648.512 1351.4,-655.478"/>
<text text-anchor="middle" x="1011" y="-688.9" style="font-family:Times New Roman;font-size:14.00;">/</text>
</g>
<!-- tag -->
<g id="node51" class="node"><title>tag</title>
<ellipse style="fill:none;stroke:black;" cx="724" cy="-648" rx="27.1004" ry="18"/>
<text text-anchor="middle" x="724" y="-643.9" style="font-family:Times New Roman;font-size:14.00;">tag</text>
</g>
<!-- open&#45;&gt;tag -->
<g id="edge70" class="edge"><title>open&#45;&gt;tag</title>
<path style="fill:none;stroke:black;" d="M486,-728C536,-711 637,-677 690,-659"/>
<polygon style="fill:black;stroke:black;" points="691.427,-662.226 700,-656 689.416,-655.521 691.427,-662.226"/>
<text text-anchor="middle" x="640" y="-688.9" style="font-family:Times New Roman;font-size:14.00;">{sonst}</text>
</g>
<!-- text&#45;&gt;open -->
<g id="edge12" class="edge"><title>text&#45;&gt;open</title>
<path style="fill:none;stroke:black;" d="M88,-821C158,-806 335,-765 415,-747"/>
<polygon style="fill:black;stroke:black;" points="415.881,-750.393 425,-745 414.508,-743.529 415.881,-750.393"/>
<text text-anchor="middle" x="301" y="-778.9" style="font-family:Times New Roman;font-size:14.00;">&lt;</text>
</g>
<!-- text&#45;&gt;error -->
<g id="edge10" class="edge"><title>text&#45;&gt;error</title>
<path style="fill:none;stroke:black;" d="M56,-810C54,-792 50,-763 50,-738 50,-738 50,-738 50,-108 50,-49 115,-69 171,-54 256,-29 359,-22 418,-19"/>
<polygon style="fill:black;stroke:black;" points="418,-22.5001 428,-19 418,-15.5001 418,-22.5001"/>
<text text-anchor="middle" x="56" y="-418.9" style="font-family:Times New Roman;font-size:14.00;">&gt;</text>
</g>
<!-- text&#45;&gt;text -->
<g id="edge8" class="edge"><title>text&#45;&gt;text</title>
<path style="fill:none;stroke:black;" d="M87,-836C98,-837 108,-834 108,-828 108,-824 103,-821 97,-820"/>
<polygon style="fill:black;stroke:black;" points="97,-816.5 87,-820 97,-823.5 97,-816.5"/>
<text text-anchor="middle" x="132" y="-823.9" style="font-family:Times New Roman;font-size:14.00;">[^&lt;&gt;]</text>
</g>
<!-- comment0&#45;&gt;error -->
<g id="edge18" class="edge"><title>comment0&#45;&gt;error</title>
<path style="fill:none;stroke:black;" d="M276,-450C280,-435 286,-414 289,-396 303,-324 298,-305 309,-234 323,-153 292,-114 347,-54 358,-43 392,-33 420,-26"/>
<polygon style="fill:black;stroke:black;" points="420.881,-29.3933 430,-24 419.508,-22.5292 420.881,-29.3933"/>
<text text-anchor="middle" x="328" y="-238.9" style="font-family:Times New Roman;font-size:14.00;">[^&#45;\[]</text>
</g>
<!-- comment1 -->
<g id="node14" class="node"><title>comment1</title>
<ellipse style="fill:none;stroke:black;" cx="623" cy="-378" rx="61.8445" ry="18"/>
<text text-anchor="middle" x="623" y="-373.9" style="font-family:Times New Roman;font-size:14.00;">comment1</text>
</g>
<!-- comment0&#45;&gt;comment1 -->
<g id="edge16" class="edge"><title>comment0&#45;&gt;comment1</title>
<path style="fill:none;stroke:black;" d="M318,-456C382,-440 498,-410 567,-392"/>
<polygon style="fill:black;stroke:black;" points="567.881,-395.393 577,-390 566.508,-388.529 567.881,-395.393"/>
<text text-anchor="middle" x="480" y="-418.9" style="font-family:Times New Roman;font-size:14.00;">&#45;</text>
</g>
<!-- cdata1 -->
<g id="node28" class="node"><title>cdata1</title>
<ellipse style="fill:none;stroke:black;" cx="236" cy="-378" rx="43.7776" ry="18"/>
<text text-anchor="middle" x="236" y="-373.9" style="font-family:Times New Roman;font-size:14.00;">cdata1</text>
</g>
<!-- comment0&#45;&gt;cdata1 -->
<g id="edge36" class="edge"><title>comment0&#45;&gt;cdata1</title>
<path style="fill:none;stroke:black;" d="M264,-450C259,-437 252,-420 247,-406"/>
<polygon style="fill:black;stroke:black;" points="249.964,-403.985 243,-396 243.464,-406.585 249.964,-403.985"/>
<text text-anchor="middle" x="263" y="-418.9" style="font-family:Times New Roman;font-size:14.00;">\[</text>
</g>
<!-- comment1&#45;&gt;error -->
<g id="edge22" class="edge"><title>comment1&#45;&gt;error</title>
<path style="fill:none;stroke:black;" d="M575,-366C535,-357 482,-344 478,-342 442,-324 408,-327 407,-288 407,-288 407,-288 407,-108 408,-82 423,-58 439,-41"/>
<polygon style="fill:black;stroke:black;" points="441.404,-43.546 446,-34 436.454,-38.5962 441.404,-43.546"/>
<text text-anchor="middle" x="421" y="-193.9" style="font-family:Times New Roman;font-size:14.00;">[^&#45;]</text>
</g>
<!-- comment -->
<g id="node17" class="node"><title>comment</title>
<ellipse style="fill:none;stroke:black;" cx="784" cy="-288" rx="55.0898" ry="18"/>
<text text-anchor="middle" x="784" y="-283.9" style="font-family:Times New Roman;font-size:14.00;">comment</text>
</g>
<!-- comment1&#45;&gt;comment -->
<g id="edge20" class="edge"><title>comment1&#45;&gt;comment</title>
<path style="fill:none;stroke:black;" d="M652,-362C678,-347 718,-325 747,-309"/>
<polygon style="fill:black;stroke:black;" points="748.958,-311.916 756,-304 745.559,-305.797 748.958,-311.916"/>
<text text-anchor="middle" x="719" y="-328.9" style="font-family:Times New Roman;font-size:14.00;">&#45;</text>
</g>
<!-- comment&#45;&gt;comment -->
<g id="edge26" class="edge"><title>comment&#45;&gt;comment</title>
<path style="fill:none;stroke:black;" d="M833,-296C847,-296 857,-293 857,-288 857,-284 852,-282 843,-281"/>
<polygon style="fill:black;stroke:black;" points="843.299,-277.512 833,-280 842.602,-284.478 843.299,-277.512"/>
<text text-anchor="middle" x="871" y="-283.9" style="font-family:Times New Roman;font-size:14.00;">[^&#45;]</text>
</g>
<!-- comment2 -->
<g id="node20" class="node"><title>comment2</title>
<ellipse style="fill:none;stroke:black;" cx="823" cy="-198" rx="61.8445" ry="18"/>
<text text-anchor="middle" x="823" y="-193.9" style="font-family:Times New Roman;font-size:14.00;">comment2</text>
</g>
<!-- comment&#45;&gt;comment2 -->
<g id="edge24" class="edge"><title>comment&#45;&gt;comment2</title>
<path style="fill:none;stroke:black;" d="M792,-270C795,-264 798,-258 801,-252 805,-243 809,-234 812,-225"/>
<polygon style="fill:black;stroke:black;" points="815.137,-226.56 816,-216 808.74,-223.717 815.137,-226.56"/>
<text text-anchor="middle" x="809" y="-238.9" style="font-family:Times New Roman;font-size:14.00;">&#45;</text>
</g>
<!-- comment2&#45;&gt;comment -->
<g id="edge30" class="edge"><title>comment2&#45;&gt;comment</title>
<path style="fill:none;stroke:black;" d="M823,-216C823,-227 821,-241 816,-252 814,-256 812,-260 809,-263"/>
<polygon style="fill:black;stroke:black;" points="806.2,-260.9 803,-271 811.8,-265.1 806.2,-260.9"/>
<text text-anchor="middle" x="834" y="-238.9" style="font-family:Times New Roman;font-size:14.00;">[^&#45;]</text>
</g>
<!-- comment3 -->
<g id="node23" class="node"><title>comment3</title>
<ellipse style="fill:none;stroke:black;" cx="823" cy="-108" rx="61.8445" ry="18"/>
<text text-anchor="middle" x="823" y="-103.9" style="font-family:Times New Roman;font-size:14.00;">comment3</text>
</g>
<!-- comment2&#45;&gt;comment3 -->
<g id="edge28" class="edge"><title>comment2&#45;&gt;comment3</title>
<path style="fill:none;stroke:black;" d="M823,-180C823,-167 823,-151 823,-136"/>
<polygon style="fill:black;stroke:black;" points="826.5,-136 823,-126 819.5,-136 826.5,-136"/>
<text text-anchor="middle" x="825" y="-148.9" style="font-family:Times New Roman;font-size:14.00;">&#45;</text>
</g>
<!-- comment3&#45;&gt;start -->
<g id="edge32" class="edge"><title>comment3&#45;&gt;start</title>
<path style="fill:none;stroke:black;" d="M847,-125C864,-138 884,-157 894,-180 957,-335 869,-389 869,-558 869,-828 869,-828 869,-828 869,-849 869,-872 869,-890"/>
<polygon style="fill:black;stroke:black;" points="865.5,-890 869,-900 872.5,-890 865.5,-890"/>
<text text-anchor="middle" x="876" y="-508.9" style="font-family:Times New Roman;font-size:14.00;">&gt;</text>
</g>
<!-- comment3&#45;&gt;error -->
<g id="edge34" class="edge"><title>comment3&#45;&gt;error</title>
<path style="fill:none;stroke:black;" d="M781,-95C743,-83 687,-66 637,-54 592,-42 542,-32 506,-26"/>
<polygon style="fill:black;stroke:black;" points="506.492,-22.5292 496,-24 505.119,-29.3933 506.492,-22.5292"/>
<text text-anchor="middle" x="724" y="-58.9" style="font-family:Times New Roman;font-size:14.00;">[^&gt;]</text>
</g>
<!-- cdata1&#45;&gt;error -->
<g id="edge40" class="edge"><title>cdata1&#45;&gt;error</title>
<path style="fill:none;stroke:black;" d="M247,-360C250,-355 253,-348 254,-342 271,-271 240,-250 254,-180 267,-120 263,-93 309,-54 326,-40 379,-30 419,-24"/>
<polygon style="fill:black;stroke:black;" points="419.881,-27.3933 429,-22 418.508,-20.5292 419.881,-27.3933"/>
<text text-anchor="middle" x="282" y="-193.9" style="font-family:Times New Roman;font-size:14.00;">{sonst}</text>
</g>
<!-- cdata -->
<g id="node30" class="node"><title>cdata</title>
<ellipse style="fill:none;stroke:black;" cx="153" cy="-288" rx="37.0233" ry="18"/>
<text text-anchor="middle" x="153" y="-283.9" style="font-family:Times New Roman;font-size:14.00;">cdata</text>
</g>
<!-- cdata1&#45;&gt;cdata -->
<g id="edge38" class="edge"><title>cdata1&#45;&gt;cdata</title>
<path style="fill:none;stroke:black;" d="M220,-361C207,-347 189,-328 175,-313"/>
<polygon style="fill:black;stroke:black;" points="177.219,-310.221 168,-305 171.951,-314.831 177.219,-310.221"/>
<text text-anchor="middle" x="227" y="-328.9" style="font-family:Times New Roman;font-size:14.00;">cdata\[</text>
</g>
<!-- cdata&#45;&gt;cdata -->
<g id="edge44" class="edge"><title>cdata&#45;&gt;cdata</title>
<path style="fill:none;stroke:black;" d="M186,-296C198,-296 208,-294 208,-288 208,-284 203,-282 196,-281"/>
<polygon style="fill:black;stroke:black;" points="196.299,-277.512 186,-280 195.602,-284.478 196.299,-277.512"/>
<text text-anchor="middle" x="224" y="-283.9" style="font-family:Times New Roman;font-size:14.00;">[^\]]</text>
</g>
<!-- cdata2 -->
<g id="node33" class="node"><title>cdata2</title>
<ellipse style="fill:none;stroke:black;" cx="160" cy="-198" rx="43.7776" ry="18"/>
<text text-anchor="middle" x="160" y="-193.9" style="font-family:Times New Roman;font-size:14.00;">cdata2</text>
</g>
<!-- cdata&#45;&gt;cdata2 -->
<g id="edge42" class="edge"><title>cdata&#45;&gt;cdata2</title>
<path style="fill:none;stroke:black;" d="M145,-270C142,-259 138,-246 141,-234 142,-231 143,-228 145,-224"/>
<polygon style="fill:black;stroke:black;" points="148.137,-225.56 149,-215 141.74,-222.717 148.137,-225.56"/>
<text text-anchor="middle" x="148" y="-238.9" style="font-family:Times New Roman;font-size:14.00;">\[</text>
</g>
<!-- cdata2&#45;&gt;cdata -->
<g id="edge48" class="edge"><title>cdata2&#45;&gt;cdata</title>
<path style="fill:none;stroke:black;" d="M158,-216C157,-229 156,-245 155,-260"/>
<polygon style="fill:black;stroke:black;" points="151.512,-259.701 154,-270 158.478,-260.398 151.512,-259.701"/>
<text text-anchor="middle" x="174" y="-238.9" style="font-family:Times New Roman;font-size:14.00;">[^\]]</text>
</g>
<!-- cdata3 -->
<g id="node36" class="node"><title>cdata3</title>
<ellipse style="fill:none;stroke:black;" cx="160" cy="-108" rx="43.7776" ry="18"/>
<text text-anchor="middle" x="160" y="-103.9" style="font-family:Times New Roman;font-size:14.00;">cdata3</text>
</g>
<!-- cdata2&#45;&gt;cdata3 -->
<g id="edge46" class="edge"><title>cdata2&#45;&gt;cdata3</title>
<path style="fill:none;stroke:black;" d="M160,-180C160,-167 160,-151 160,-136"/>
<polygon style="fill:black;stroke:black;" points="163.5,-136 160,-126 156.5,-136 163.5,-136"/>
<text text-anchor="middle" x="165" y="-148.9" style="font-family:Times New Roman;font-size:14.00;">\]</text>
</g>
<!-- cdata3&#45;&gt;start -->
<g id="edge50" class="edge"><title>cdata3&#45;&gt;start</title>
<path style="fill:none;stroke:black;" d="M143,-125C130,-138 114,-158 107,-180 90,-233 101,-250 107,-306 133,-526 61,-638 220,-792 308,-876 694,-907 825,-915"/>
<polygon style="fill:black;stroke:black;" points="824.701,-918.488 835,-916 825.398,-911.522 824.701,-918.488"/>
<text text-anchor="middle" x="120" y="-508.9" style="font-family:Times New Roman;font-size:14.00;">&gt;</text>
</g>
<!-- cdata3&#45;&gt;error -->
<g id="edge52" class="edge"><title>cdata3&#45;&gt;error</title>
<path style="fill:none;stroke:black;" d="M166,-90C171,-78 179,-62 191,-54 227,-29 350,-22 418,-19"/>
<polygon style="fill:black;stroke:black;" points="418,-22.5001 428,-19 418,-15.5001 418,-22.5001"/>
<text text-anchor="middle" x="209" y="-58.9" style="font-family:Times New Roman;font-size:14.00;">[^&gt;]</text>
</g>
<!-- close&#45;&gt;start -->
<g id="edge62" class="edge"><title>close&#45;&gt;start</title>
<path style="fill:none;stroke:black;" d="M1398,-666C1403,-710 1410,-825 1347,-882 1315,-910 1026,-917 913,-918"/>
<polygon style="fill:black;stroke:black;" points="913,-914.5 903,-918 913,-921.5 913,-914.5"/>
<text text-anchor="middle" x="1402" y="-778.9" style="font-family:Times New Roman;font-size:14.00;">&gt;</text>
</g>
<!-- close&#45;&gt;close -->
<g id="edge56" class="edge"><title>close&#45;&gt;close</title>
<path style="fill:none;stroke:black;" d="M1425,-656C1437,-657 1447,-654 1447,-648 1447,-644 1442,-641 1435,-640"/>
<polygon style="fill:black;stroke:black;" points="1435,-636.5 1425,-640 1435,-643.5 1435,-636.5"/>
<text text-anchor="middle" x="1473" y="-643.9" style="font-family:Times New Roman;font-size:14.00;">[^\w&gt;]</text>
</g>
<!-- close1 -->
<g id="node44" class="node"><title>close1</title>
<ellipse style="fill:none;stroke:black;" cx="1509" cy="-558" rx="40.9981" ry="18"/>
<text text-anchor="middle" x="1509" y="-553.9" style="font-family:Times New Roman;font-size:14.00;">close1</text>
</g>
<!-- close&#45;&gt;close1 -->
<g id="edge58" class="edge"><title>close&#45;&gt;close1</title>
<path style="fill:none;stroke:black;" d="M1416,-634C1426,-627 1437,-619 1447,-612 1459,-602 1472,-591 1483,-581"/>
<polygon style="fill:black;stroke:black;" points="1485.78,-583.219 1491,-574 1481.17,-577.951 1485.78,-583.219"/>
<text text-anchor="middle" x="1474" y="-598.9" style="font-family:Times New Roman;font-size:14.00;">\w</text>
</g>
<!-- close1&#45;&gt;start -->
<g id="edge64" class="edge"><title>close1&#45;&gt;start</title>
<path style="fill:none;stroke:black;" d="M1515,-576C1520,-594 1527,-623 1527,-648 1527,-828 1527,-828 1527,-828 1527,-890 1061,-911 913,-917"/>
<polygon style="fill:black;stroke:black;" points="913,-913.5 903,-917 913,-920.5 913,-913.5"/>
<text text-anchor="middle" x="1533" y="-733.9" style="font-family:Times New Roman;font-size:14.00;">&gt;</text>
</g>
<!-- close1&#45;&gt;error -->
<g id="edge66" class="edge"><title>close1&#45;&gt;error</title>
<path style="fill:none;stroke:black;" d="M1505,-540C1502,-522 1497,-493 1497,-468 1497,-468 1497,-468 1497,-108 1497,-11 1382,-68 1287,-54 1135,-32 657,-21 508,-19"/>
<polygon style="fill:black;stroke:black;" points="508,-15.5001 498,-19 508,-22.5001 508,-15.5001"/>
<text text-anchor="middle" x="1514" y="-283.9" style="font-family:Times New Roman;font-size:14.00;">[^&gt;]</text>
</g>
<!-- close1&#45;&gt;close1 -->
<g id="edge60" class="edge"><title>close1&#45;&gt;close1</title>
<path style="fill:none;stroke:black;" d="M1546,-566C1558,-566 1568,-564 1568,-558 1568,-555 1563,-552 1556,-551"/>
<polygon style="fill:black;stroke:black;" points="1556.3,-547.512 1546,-550 1555.6,-554.478 1556.3,-547.512"/>
<text text-anchor="middle" x="1576" y="-553.9" style="font-family:Times New Roman;font-size:14.00;">\w</text>
</g>
<!-- tag&#45;&gt;error -->
<g id="edge72" class="edge"><title>tag&#45;&gt;error</title>
<path style="fill:none;stroke:black;" d="M721,-630C717,-612 713,-583 713,-558 713,-558 713,-558 713,-423 713,-393 716,-378 694,-360 661,-333 542,-361 506,-342 487,-332 484,-325 477,-306 442,-216 451,-99 459,-46"/>
<polygon style="fill:black;stroke:black;" points="462.488,-46.2987 460,-36 455.522,-45.6021 462.488,-46.2987"/>
<text text-anchor="middle" x="599" y="-328.9" style="font-family:Times New Roman;font-size:14.00;">[&lt;&gt;&quot;()=?{\[\]},;.\&#45;#&#39;+*~]</text>
</g>
<!-- tag&#45;&gt;tag -->
<g id="edge78" class="edge"><title>tag&#45;&gt;tag</title>
<path style="fill:none;stroke:black;" d="M749,-656C760,-657 769,-654 769,-648 769,-644 765,-641 759,-640"/>
<polygon style="fill:black;stroke:black;" points="759,-636.5 749,-640 759,-643.5 759,-636.5"/>
<text text-anchor="middle" x="796" y="-643.9" style="font-family:Times New Roman;font-size:14.00;">{sonst}</text>
</g>
<!-- inner -->
<g id="node54" class="node"><title>inner</title>
<ellipse style="fill:none;stroke:black;" cx="934" cy="-558" rx="36.1339" ry="18"/>
<text text-anchor="middle" x="934" y="-553.9" style="font-family:Times New Roman;font-size:14.00;">inner</text>
</g>
<!-- tag&#45;&gt;inner -->
<g id="edge74" class="edge"><title>tag&#45;&gt;inner</title>
<path style="fill:none;stroke:black;" d="M747,-638C783,-623 854,-593 897,-574"/>
<polygon style="fill:black;stroke:black;" points="898.283,-577.26 906,-570 895.44,-570.863 898.283,-577.26"/>
<text text-anchor="middle" x="855" y="-598.9" style="font-family:Times New Roman;font-size:14.00;">\w</text>
</g>
<!-- inner_close -->
<g id="node56" class="node"><title>inner_close</title>
<ellipse style="fill:none;stroke:black;" cx="1338" cy="-108" rx="64.1231" ry="18"/>
<text text-anchor="middle" x="1338" y="-103.9" style="font-family:Times New Roman;font-size:14.00;">inner_close</text>
</g>
<!-- tag&#45;&gt;inner_close -->
<g id="edge76" class="edge"><title>tag&#45;&gt;inner_close</title>
<path style="fill:none;stroke:black;" d="M751,-647C877,-644 1402,-624 1402,-558 1402,-558 1402,-558 1402,-198 1402,-172 1385,-148 1368,-132"/>
<polygon style="fill:black;stroke:black;" points="1369.83,-128.951 1360,-125 1365.22,-134.219 1369.83,-128.951"/>
<text text-anchor="middle" x="1404" y="-373.9" style="font-family:Times New Roman;font-size:14.00;">/</text>
</g>
<!-- inner&#45;&gt;start -->
<g id="edge84" class="edge"><title>inner&#45;&gt;start</title>
<path style="fill:none;stroke:black;" d="M934,-576C934,-594 934,-623 934,-648 934,-828 934,-828 934,-828 934,-855 914,-880 897,-896"/>
<polygon style="fill:black;stroke:black;" points="894.221,-893.781 889,-903 898.831,-899.049 894.221,-893.781"/>
<text text-anchor="middle" x="940" y="-733.9" style="font-family:Times New Roman;font-size:14.00;">&gt;</text>
</g>
<!-- inner&#45;&gt;error -->
<g id="edge80" class="edge"><title>inner&#45;&gt;error</title>
<path style="fill:none;stroke:black;" d="M925,-540C900,-495 826,-373 726,-324 679,-300 527,-343 491,-306 471,-285 482,-81 477,-54 477,-51 476,-48 475,-46"/>
<polygon style="fill:black;stroke:black;" points="477.964,-43.9849 471,-36 471.464,-46.5847 477.964,-43.9849"/>
<text text-anchor="middle" x="583" y="-283.9" style="font-family:Times New Roman;font-size:14.00;">[&lt;&gt;&quot;()=?{\[\]},;.:\&#45;#&#39;+*~]</text>
</g>
<!-- inner&#45;&gt;inner -->
<g id="edge82" class="edge"><title>inner&#45;&gt;inner</title>
<path style="fill:none;stroke:black;" d="M966,-566C978,-567 988,-564 988,-558 988,-554 983,-551 976,-550"/>
<polygon style="fill:black;stroke:black;" points="976,-546.5 966,-550 976,-553.5 976,-546.5"/>
<text text-anchor="middle" x="996" y="-553.9" style="font-family:Times New Roman;font-size:14.00;">\w</text>
</g>
<!-- inner&#45;&gt;inner_close -->
<g id="edge86" class="edge"><title>inner&#45;&gt;inner_close</title>
<path style="fill:none;stroke:black;" d="M969,-553C1040,-540 1204,-500 1286,-396 1347,-318 1345,-192 1341,-136"/>
<polygon style="fill:black;stroke:black;" points="1344.48,-135.602 1340,-126 1337.51,-136.299 1344.48,-135.602"/>
<text text-anchor="middle" x="1323" y="-328.9" style="font-family:Times New Roman;font-size:14.00;">/</text>
</g>
<!-- attr -->
<g id="node65" class="node"><title>attr</title>
<ellipse style="fill:none;stroke:black;" cx="989" cy="-468" rx="29.1851" ry="18"/>
<text text-anchor="middle" x="989" y="-463.9" style="font-family:Times New Roman;font-size:14.00;">attr</text>
</g>
<!-- inner&#45;&gt;attr -->
<g id="edge92" class="edge"><title>inner&#45;&gt;attr</title>
<path style="fill:none;stroke:black;" d="M945,-541C953,-527 964,-509 974,-494"/>
<polygon style="fill:black;stroke:black;" points="977.203,-495.441 979,-485 971.084,-492.042 977.203,-495.441"/>
<text text-anchor="middle" x="992" y="-508.9" style="font-family:Times New Roman;font-size:14.00;">{sonst}</text>
</g>
<!-- inner_close&#45;&gt;start -->
<g id="edge88" class="edge"><title>inner_close&#45;&gt;start</title>
<path style="fill:none;stroke:black;" d="M1375,-123C1404,-137 1440,-162 1440,-198 1440,-513 1440,-513 1440,-513 1440,-544 1427,-550 1409,-576 1388,-604 1370,-600 1352,-630 1336,-654 1333,-663 1333,-693 1333,-828 1333,-828 1333,-828 1333,-870 1029,-903 913,-914"/>
<polygon style="fill:black;stroke:black;" points="912.602,-910.522 903,-915 913.299,-917.488 912.602,-910.522"/>
<text text-anchor="middle" x="1446" y="-508.9" style="font-family:Times New Roman;font-size:14.00;">&gt;</text>
</g>
<!-- inner_close&#45;&gt;error -->
<g id="edge90" class="edge"><title>inner_close&#45;&gt;error</title>
<path style="fill:none;stroke:black;" d="M1302,-93C1270,-80 1222,-62 1178,-54 1048,-30 644,-20 508,-18"/>
<polygon style="fill:black;stroke:black;" points="508,-14.5001 498,-18 508,-21.5001 508,-14.5001"/>
<text text-anchor="middle" x="1265" y="-58.9" style="font-family:Times New Roman;font-size:14.00;">[^&gt;]</text>
</g>
<!-- attr&#45;&gt;error -->
<g id="edge94" class="edge"><title>attr&#45;&gt;error</title>
<path style="fill:none;stroke:black;" d="M989,-450C988,-426 982,-383 957,-360 917,-323 768,-330 720,-306 697,-294 698,-281 677,-270 652,-256 638,-269 617,-252 540,-188 580,-128 515,-54 509,-48 502,-42 495,-37"/>
<polygon style="fill:black;stroke:black;" points="497.1,-34.2 487,-31 492.9,-39.8 497.1,-34.2"/>
<text text-anchor="middle" x="708" y="-238.9" style="font-family:Times New Roman;font-size:14.00;">[&lt;&gt;&quot;()?{\[\]},;.\&#45;#&#39;+*~\s]</text>
</g>
<!-- attr&#45;&gt;attr -->
<g id="edge98" class="edge"><title>attr&#45;&gt;attr</title>
<path style="fill:none;stroke:black;" d="M1015,-476C1026,-477 1036,-474 1036,-468 1036,-464 1031,-461 1025,-460"/>
<polygon style="fill:black;stroke:black;" points="1025,-456.5 1015,-460 1025,-463.5 1025,-456.5"/>
<text text-anchor="middle" x="1063" y="-463.9" style="font-family:Times New Roman;font-size:14.00;">{sonst}</text>
</g>
<!-- attr1 -->
<g id="node68" class="node"><title>attr1</title>
<ellipse style="fill:none;stroke:black;" cx="1034" cy="-378" rx="34.9399" ry="18"/>
<text text-anchor="middle" x="1034" y="-373.9" style="font-family:Times New Roman;font-size:14.00;">attr1</text>
</g>
<!-- attr&#45;&gt;attr1 -->
<g id="edge96" class="edge"><title>attr&#45;&gt;attr1</title>
<path style="fill:none;stroke:black;" d="M998,-451C1005,-438 1013,-419 1020,-404"/>
<polygon style="fill:black;stroke:black;" points="1023.2,-405.441 1025,-395 1017.08,-402.042 1023.2,-405.441"/>
<text text-anchor="middle" x="1021" y="-418.9" style="font-family:Times New Roman;font-size:14.00;">=</text>
</g>
<!-- attrQuot -->
<g id="node71" class="node"><title>attrQuot</title>
<ellipse style="fill:none;stroke:black;" cx="1198" cy="-288" rx="53.0059" ry="18"/>
<text text-anchor="middle" x="1198" y="-283.9" style="font-family:Times New Roman;font-size:14.00;">attrQuot</text>
</g>
<!-- attr1&#45;&gt;attrQuot -->
<g id="edge100" class="edge"><title>attr1&#45;&gt;attrQuot</title>
<path style="fill:none;stroke:black;" d="M1058,-365C1085,-350 1130,-326 1161,-308"/>
<polygon style="fill:black;stroke:black;" points="1162.96,-310.916 1170,-303 1159.56,-304.797 1162.96,-310.916"/>
<text text-anchor="middle" x="1132" y="-328.9" style="font-family:Times New Roman;font-size:14.00;">&quot;</text>
</g>
<!-- attrApos -->
<g id="node79" class="node"><title>attrApos</title>
<ellipse style="fill:none;stroke:black;" cx="1031" cy="-288" rx="52.1162" ry="18"/>
<text text-anchor="middle" x="1031" y="-283.9" style="font-family:Times New Roman;font-size:14.00;">attrApos</text>
</g>
<!-- attr1&#45;&gt;attrApos -->
<g id="edge112" class="edge"><title>attr1&#45;&gt;attrApos</title>
<path style="fill:none;stroke:black;" d="M1033,-360C1033,-347 1032,-331 1032,-316"/>
<polygon style="fill:black;stroke:black;" points="1035.5,-316 1032,-306 1028.5,-316 1035.5,-316"/>
<text text-anchor="middle" x="1033" y="-328.9" style="font-family:Times New Roman;font-size:14.00;">&#39;</text>
</g>
<!-- attrQuot&#45;&gt;attrQuot -->
<g id="edge102" class="edge"><title>attrQuot&#45;&gt;attrQuot</title>
<path style="fill:none;stroke:black;" d="M1245,-296C1259,-296 1269,-293 1269,-288 1269,-284 1264,-282 1255,-281"/>
<polygon style="fill:black;stroke:black;" points="1255.3,-277.512 1245,-280 1254.6,-284.478 1255.3,-277.512"/>
<text text-anchor="middle" x="1283" y="-283.9" style="font-family:Times New Roman;font-size:14.00;">[^&quot;]</text>
</g>
<!-- attrQuot1 -->
<g id="node74" class="node"><title>attrQuot1</title>
<ellipse style="fill:none;stroke:black;" cx="1260" cy="-198" rx="59.7599" ry="18"/>
<text text-anchor="middle" x="1260" y="-193.9" style="font-family:Times New Roman;font-size:14.00;">attrQuot1</text>
</g>
<!-- attrQuot&#45;&gt;attrQuot1 -->
<g id="edge104" class="edge"><title>attrQuot&#45;&gt;attrQuot1</title>
<path style="fill:none;stroke:black;" d="M1210,-270C1219,-257 1232,-239 1242,-224"/>
<polygon style="fill:black;stroke:black;" points="1244.8,-226.1 1248,-216 1239.2,-221.9 1244.8,-226.1"/>
<text text-anchor="middle" x="1236" y="-238.9" style="font-family:Times New Roman;font-size:14.00;">&quot;</text>
</g>
<!-- attrQuot1&#45;&gt;error -->
<g id="edge110" class="edge"><title>attrQuot1&#45;&gt;error</title>
<path style="fill:none;stroke:black;" d="M1230,-182C1209,-170 1178,-155 1150,-144 1078,-115 1060,-110 986,-90 914,-70 896,-65 823,-54 710,-36 576,-25 508,-21"/>
<polygon style="fill:black;stroke:black;" points="508.299,-17.5125 498,-20 507.602,-24.4778 508.299,-17.5125"/>
<text text-anchor="middle" x="1128" y="-103.9" style="font-family:Times New Roman;font-size:14.00;">[^\s/]</text>
</g>
<!-- attrQuot1&#45;&gt;inner -->
<g id="edge108" class="edge"><title>attrQuot1&#45;&gt;inner</title>
<path style="fill:none;stroke:black;" d="M1277,-216C1296,-237 1321,-274 1307,-306 1244,-445 1058,-519 975,-546"/>
<polygon style="fill:black;stroke:black;" points="973.573,-542.774 965,-549 975.584,-549.479 973.573,-542.774"/>
<text text-anchor="middle" x="1276" y="-373.9" style="font-family:Times New Roman;font-size:14.00;">\s</text>
</g>
<!-- attrQuot1&#45;&gt;inner_close -->
<g id="edge106" class="edge"><title>attrQuot1&#45;&gt;inner_close</title>
<path style="fill:none;stroke:black;" d="M1275,-180C1287,-167 1303,-148 1316,-134"/>
<polygon style="fill:black;stroke:black;" points="1319.05,-135.831 1323,-126 1313.78,-131.221 1319.05,-135.831"/>
<text text-anchor="middle" x="1307" y="-148.9" style="font-family:Times New Roman;font-size:14.00;">/</text>
</g>
<!-- attrApos&#45;&gt;attrApos -->
<g id="edge114" class="edge"><title>attrApos&#45;&gt;attrApos</title>
<path style="fill:none;stroke:black;" d="M1077,-296C1091,-296 1101,-293 1101,-288 1101,-284 1096,-282 1087,-281"/>
<polygon style="fill:black;stroke:black;" points="1087.3,-277.512 1077,-280 1086.6,-284.478 1087.3,-277.512"/>
<text text-anchor="middle" x="1114" y="-283.9" style="font-family:Times New Roman;font-size:14.00;">[^&#39;]</text>
</g>
<!-- attrApos1 -->
<g id="node82" class="node"><title>attrApos1</title>
<ellipse style="fill:none;stroke:black;" cx="1007" cy="-198" rx="57.8712" ry="18"/>
<text text-anchor="middle" x="1007" y="-193.9" style="font-family:Times New Roman;font-size:14.00;">attrApos1</text>
</g>
<!-- attrApos&#45;&gt;attrApos1 -->
<g id="edge116" class="edge"><title>attrApos&#45;&gt;attrApos1</title>
<path style="fill:none;stroke:black;" d="M1026,-270C1023,-257 1018,-240 1015,-226"/>
<polygon style="fill:black;stroke:black;" points="1018.23,-224.573 1012,-216 1011.52,-226.584 1018.23,-224.573"/>
<text text-anchor="middle" x="1021" y="-238.9" style="font-family:Times New Roman;font-size:14.00;">&#39;</text>
</g>
<!-- attrApos1&#45;&gt;error -->
<g id="edge122" class="edge"><title>attrApos1&#45;&gt;error</title>
<path style="fill:none;stroke:black;" d="M994,-180C974,-156 936,-113 894,-90 827,-53 604,-31 508,-22"/>
<polygon style="fill:black;stroke:black;" points="508.299,-18.5125 498,-21 507.602,-25.4778 508.299,-18.5125"/>
<text text-anchor="middle" x="963" y="-103.9" style="font-family:Times New Roman;font-size:14.00;">[^\s/]</text>
</g>
<!-- attrApos1&#45;&gt;inner -->
<g id="edge120" class="edge"><title>attrApos1&#45;&gt;inner</title>
<path style="fill:none;stroke:black;" d="M995,-216C987,-230 976,-250 970,-270 941,-361 935,-477 934,-530"/>
<polygon style="fill:black;stroke:black;" points="930.5,-530 934,-540 937.5,-530 930.5,-530"/>
<text text-anchor="middle" x="952" y="-373.9" style="font-family:Times New Roman;font-size:14.00;">\s</text>
</g>
<!-- attrApos1&#45;&gt;inner_close -->
<g id="edge118" class="edge"><title>attrApos1&#45;&gt;inner_close</title>
<path style="fill:none;stroke:black;" d="M1051,-186C1111,-170 1217,-141 1282,-124"/>
<polygon style="fill:black;stroke:black;" points="1283.43,-127.226 1292,-121 1281.42,-120.521 1283.43,-127.226"/>
<text text-anchor="middle" x="1203" y="-148.9" style="font-family:Times New Roman;font-size:14.00;">/</text>
</g>
</g>
</svg>
