<?xml version="1.0" encoding="UTF-8" standalone="no"?>
<!DOCTYPE svg PUBLIC "-//W3C//DTD SVG 1.0//EN"
 "http://www.w3.org/TR/2001/REC-SVG-20010904/DTD/svg10.dtd" [
 <!ATTLIST svg xmlns:xlink CDATA #FIXED "http://www.w3.org/1999/xlink">
]>
<!-- Generated by Graphviz version 2.20.2 (Tue Mar &#160;2 19:03:41 UTC 2010)
 -->
<!-- Title: States Pages: 1 -->
<svg width="1794pt" height="944pt"
 viewBox="0.00 0.00 1794.00 944.00" xmlns="http://www.w3.org/2000/svg" xmlns:xlink="http://www.w3.org/1999/xlink">
<g id="graph0" class="graph" transform="scale(1 1) rotate(0) translate(4 940)">
<title>States</title>
<polygon style="fill:white;stroke:white;" points="-4,4 -4,-940 1790,-940 1790,4 -4,4"/>
<!-- OuterScope -->
<g id="node1" class="node"><title>OuterScope</title>
<ellipse style="fill:none;stroke:black;" cx="1463" cy="-918" rx="66.9043" ry="18"/>
<text text-anchor="middle" x="1463" y="-913.9" style="font-family:Times New Roman;font-size:14.00;">OuterScope</text>
</g>
<!-- OuterScope&#45;&gt;OuterScope -->
<g id="edge4" class="edge"><title>OuterScope&#45;&gt;OuterScope</title>
<path style="fill:none;stroke:black;" d="M1523,-926C1537,-925 1548,-923 1548,-918 1548,-914 1542,-912 1533,-911"/>
<polygon style="fill:black;stroke:black;" points="1533.3,-907.512 1523,-910 1532.6,-914.478 1533.3,-907.512"/>
<text text-anchor="middle" x="1558" y="-913.9" style="font-family:Times New Roman;font-size:14.00;">ws</text>
</g>
<!-- OuterScopeLT -->
<g id="node3" class="node"><title>OuterScopeLT</title>
<ellipse style="fill:none;stroke:black;" cx="1228" cy="-828" rx="77.8268" ry="18"/>
<text text-anchor="middle" x="1228" y="-823.9" style="font-family:Times New Roman;font-size:14.00;">OuterScopeLT</text>
</g>
<!-- OuterScope&#45;&gt;OuterScopeLT -->
<g id="edge2" class="edge"><title>OuterScope&#45;&gt;OuterScopeLT</title>
<path style="fill:none;stroke:black;" d="M1424,-903C1384,-888 1321,-864 1277,-847"/>
<polygon style="fill:black;stroke:black;" points="1278.56,-843.863 1268,-843 1275.72,-850.26 1278.56,-843.863"/>
<text text-anchor="middle" x="1371" y="-868.9" style="font-family:Times New Roman;font-size:14.00;">&lt;</text>
</g>
<!-- OSComment0 -->
<g id="node6" class="node"><title>OSComment0</title>
<ellipse style="fill:none;stroke:black;" cx="1346" cy="-738" rx="77.8268" ry="18"/>
<text text-anchor="middle" x="1346" y="-733.9" style="font-family:Times New Roman;font-size:14.00;">OSComment0</text>
</g>
<!-- OuterScopeLT&#45;&gt;OSComment0 -->
<g id="edge6" class="edge"><title>OuterScopeLT&#45;&gt;OSComment0</title>
<path style="fill:none;stroke:black;" d="M1251,-811C1269,-797 1295,-777 1315,-761"/>
<polygon style="fill:black;stroke:black;" points="1317.1,-763.8 1323,-755 1312.9,-758.2 1317.1,-763.8"/>
<text text-anchor="middle" x="1300" y="-778.9" style="font-family:Times New Roman;font-size:14.00;">!</text>
</g>
<!-- OSProcessingInstruction0 -->
<g id="node18" class="node"><title>OSProcessingInstruction0</title>
<ellipse style="fill:none;stroke:black;" cx="1110" cy="-738" rx="134.112" ry="18"/>
<text text-anchor="middle" x="1110" y="-733.9" style="font-family:Times New Roman;font-size:14.00;">OSProcessingInstruction0</text>
</g>
<!-- OuterScopeLT&#45;&gt;OSProcessingInstruction0 -->
<g id="edge20" class="edge"><title>OuterScopeLT&#45;&gt;OSProcessingInstruction0</title>
<path style="fill:none;stroke:black;" d="M1205,-811C1187,-797 1161,-777 1141,-762"/>
<polygon style="fill:black;stroke:black;" points="1143.1,-759.2 1133,-756 1138.9,-764.8 1143.1,-759.2"/>
<text text-anchor="middle" x="1183" y="-778.9" style="font-family:Times New Roman;font-size:14.00;">?</text>
</g>
<!-- XmlTag -->
<g id="node77" class="node"><title>XmlTag</title>
<ellipse style="fill:none;stroke:black;" cx="502" cy="-738" rx="45.8622" ry="18"/>
<text text-anchor="middle" x="502" y="-733.9" style="font-family:Times New Roman;font-size:14.00;">XmlTag</text>
</g>
<!-- OuterScopeLT&#45;&gt;XmlTag -->
<g id="edge100" class="edge"><title>OuterScopeLT&#45;&gt;XmlTag</title>
<path style="fill:none;stroke:black;" d="M1159,-819C1016,-801 686,-761 556,-744"/>
<polygon style="fill:black;stroke:black;" points="556.299,-740.512 546,-743 555.602,-747.478 556.299,-740.512"/>
<text text-anchor="middle" x="935" y="-778.9" style="font-family:Times New Roman;font-size:14.00;">id</text>
</g>
<!-- OSComment1 -->
<g id="node8" class="node"><title>OSComment1</title>
<ellipse style="fill:none;stroke:black;" cx="1357" cy="-648" rx="77.8268" ry="18"/>
<text text-anchor="middle" x="1357" y="-643.9" style="font-family:Times New Roman;font-size:14.00;">OSComment1</text>
</g>
<!-- OSComment0&#45;&gt;OSComment1 -->
<g id="edge8" class="edge"><title>OSComment0&#45;&gt;OSComment1</title>
<path style="fill:none;stroke:black;" d="M1348,-720C1350,-707 1352,-690 1354,-676"/>
<polygon style="fill:black;stroke:black;" points="1357.49,-676.299 1355,-666 1350.52,-675.602 1357.49,-676.299"/>
<text text-anchor="middle" x="1353" y="-688.9" style="font-family:Times New Roman;font-size:14.00;">&#45;</text>
</g>
<!-- OSComment -->
<g id="node10" class="node"><title>OSComment</title>
<ellipse style="fill:none;stroke:black;" cx="1636" cy="-558" rx="71.0724" ry="18"/>
<text text-anchor="middle" x="1636" y="-553.9" style="font-family:Times New Roman;font-size:14.00;">OSComment</text>
</g>
<!-- OSComment1&#45;&gt;OSComment -->
<g id="edge10" class="edge"><title>OSComment1&#45;&gt;OSComment</title>
<path style="fill:none;stroke:black;" d="M1402,-633C1452,-617 1530,-592 1582,-575"/>
<polygon style="fill:black;stroke:black;" points="1583.43,-578.226 1592,-572 1581.42,-571.521 1583.43,-578.226"/>
<text text-anchor="middle" x="1522" y="-598.9" style="font-family:Times New Roman;font-size:14.00;">&#45;</text>
</g>
<!-- OSComment2 -->
<g id="node12" class="node"><title>OSComment2</title>
<ellipse style="fill:none;stroke:black;" cx="1629" cy="-468" rx="77.8268" ry="18"/>
<text text-anchor="middle" x="1629" y="-463.9" style="font-family:Times New Roman;font-size:14.00;">OSComment2</text>
</g>
<!-- OSComment&#45;&gt;OSComment2 -->
<g id="edge12" class="edge"><title>OSComment&#45;&gt;OSComment2</title>
<path style="fill:none;stroke:black;" d="M1640,-540C1641,-529 1643,-516 1641,-504 1641,-501 1640,-498 1639,-496"/>
<polygon style="fill:black;stroke:black;" points="1642.23,-494.573 1636,-486 1635.52,-496.584 1642.23,-494.573"/>
<text text-anchor="middle" x="1643" y="-508.9" style="font-family:Times New Roman;font-size:14.00;">&#45;</text>
</g>
<!-- OSComment2&#45;&gt;OSComment -->
<g id="edge14" class="edge"><title>OSComment2&#45;&gt;OSComment</title>
<path style="fill:none;stroke:black;" d="M1609,-486C1600,-496 1593,-509 1598,-522 1600,-526 1602,-530 1605,-534"/>
<polygon style="fill:black;stroke:black;" points="1602.45,-536.404 1612,-541 1607.4,-531.454 1602.45,-536.404"/>
<text text-anchor="middle" x="1617" y="-508.9" style="font-family:Times New Roman;font-size:14.00;">S&#45;{&#45;}</text>
</g>
<!-- OSComment3 -->
<g id="node15" class="node"><title>OSComment3</title>
<ellipse style="fill:none;stroke:black;" cx="1708" cy="-378" rx="77.8268" ry="18"/>
<text text-anchor="middle" x="1708" y="-373.9" style="font-family:Times New Roman;font-size:14.00;">OSComment3</text>
</g>
<!-- OSComment2&#45;&gt;OSComment3 -->
<g id="edge16" class="edge"><title>OSComment2&#45;&gt;OSComment3</title>
<path style="fill:none;stroke:black;" d="M1645,-450C1657,-437 1673,-418 1686,-404"/>
<polygon style="fill:black;stroke:black;" points="1689.05,-405.831 1693,-396 1683.78,-401.221 1689.05,-405.831"/>
<text text-anchor="middle" x="1676" y="-418.9" style="font-family:Times New Roman;font-size:14.00;">&#45;</text>
</g>
<!-- OSComment3&#45;&gt;OuterScope -->
<g id="edge18" class="edge"><title>OSComment3&#45;&gt;OuterScope</title>
<path style="fill:none;stroke:black;" d="M1717,-396C1725,-414 1735,-442 1735,-468 1735,-828 1735,-828 1735,-828 1735,-870 1615,-896 1534,-908"/>
<polygon style="fill:black;stroke:black;" points="1533.12,-904.607 1524,-910 1534.49,-911.471 1533.12,-904.607"/>
<text text-anchor="middle" x="1741" y="-643.9" style="font-family:Times New Roman;font-size:14.00;">&gt;</text>
</g>
<!-- OSProcessingInstruction -->
<g id="node20" class="node"><title>OSProcessingInstruction</title>
<ellipse style="fill:none;stroke:black;" cx="1095" cy="-648" rx="127.858" ry="18"/>
<text text-anchor="middle" x="1095" y="-643.9" style="font-family:Times New Roman;font-size:14.00;">OSProcessingInstruction</text>
</g>
<!-- OSProcessingInstruction0&#45;&gt;OSProcessingInstruction -->
<g id="edge22" class="edge"><title>OSProcessingInstruction0&#45;&gt;OSProcessingInstruction</title>
<path style="fill:none;stroke:black;" d="M1107,-720C1105,-707 1102,-690 1100,-676"/>
<polygon style="fill:black;stroke:black;" points="1103.39,-675.119 1098,-666 1096.53,-676.492 1103.39,-675.119"/>
<text text-anchor="middle" x="1108" y="-688.9" style="font-family:Times New Roman;font-size:14.00;">id</text>
</g>
<!-- OSProcessingInstruction&#45;&gt;OSProcessingInstruction -->
<g id="edge24" class="edge"><title>OSProcessingInstruction&#45;&gt;OSProcessingInstruction</title>
<path style="fill:none;stroke:black;" d="M1211,-656C1229,-654 1241,-652 1241,-648 1241,-645 1233,-643 1221,-641"/>
<polygon style="fill:black;stroke:black;" points="1221.3,-637.512 1211,-640 1220.6,-644.478 1221.3,-637.512"/>
<text text-anchor="middle" x="1251" y="-643.9" style="font-family:Times New Roman;font-size:14.00;">ws</text>
</g>
<!-- OSProcessingInstruction1 -->
<g id="node23" class="node"><title>OSProcessingInstruction1</title>
<ellipse style="fill:none;stroke:black;" cx="1387" cy="-558" rx="134.112" ry="18"/>
<text text-anchor="middle" x="1387" y="-553.9" style="font-family:Times New Roman;font-size:14.00;">OSProcessingInstruction1</text>
</g>
<!-- OSProcessingInstruction&#45;&gt;OSProcessingInstruction1 -->
<g id="edge26" class="edge"><title>OSProcessingInstruction&#45;&gt;OSProcessingInstruction1</title>
<path style="fill:none;stroke:black;" d="M1148,-632C1198,-617 1272,-594 1324,-578"/>
<polygon style="fill:black;stroke:black;" points="1325.43,-581.226 1334,-575 1323.42,-574.521 1325.43,-581.226"/>
<text text-anchor="middle" x="1270" y="-598.9" style="font-family:Times New Roman;font-size:14.00;">?</text>
</g>
<!-- OSPIStringQuot -->
<g id="node28" class="node"><title>OSPIStringQuot</title>
<ellipse style="fill:none;stroke:black;" cx="847" cy="-558" rx="87.0549" ry="18"/>
<text text-anchor="middle" x="847" y="-553.9" style="font-family:Times New Roman;font-size:14.00;">OSPIStringQuot</text>
</g>
<!-- OSProcessingInstruction&#45;&gt;OSPIStringQuot -->
<g id="edge34" class="edge"><title>OSProcessingInstruction&#45;&gt;OSPIStringQuot</title>
<path style="fill:none;stroke:black;" d="M1049,-631C1006,-616 944,-593 900,-577"/>
<polygon style="fill:black;stroke:black;" points="900.584,-573.521 890,-574 898.573,-580.226 900.584,-573.521"/>
<text text-anchor="middle" x="995" y="-598.9" style="font-family:Times New Roman;font-size:14.00;">&quot;</text>
</g>
<!-- OSPIStringApos -->
<g id="node32" class="node"><title>OSPIStringApos</title>
<ellipse style="fill:none;stroke:black;" cx="1095" cy="-558" rx="86.8603" ry="18"/>
<text text-anchor="middle" x="1095" y="-553.9" style="font-family:Times New Roman;font-size:14.00;">OSPIStringApos</text>
</g>
<!-- OSProcessingInstruction&#45;&gt;OSPIStringApos -->
<g id="edge40" class="edge"><title>OSProcessingInstruction&#45;&gt;OSPIStringApos</title>
<path style="fill:none;stroke:black;" d="M1095,-630C1095,-617 1095,-601 1095,-586"/>
<polygon style="fill:black;stroke:black;" points="1098.5,-586 1095,-576 1091.5,-586 1098.5,-586"/>
<text text-anchor="middle" x="1096" y="-598.9" style="font-family:Times New Roman;font-size:14.00;">&#39;</text>
</g>
<!-- OSProcessingInstruction1&#45;&gt;OuterScope -->
<g id="edge28" class="edge"><title>OSProcessingInstruction1&#45;&gt;OuterScope</title>
<path style="fill:none;stroke:black;" d="M1416,-576C1437,-592 1463,-617 1463,-648 1463,-828 1463,-828 1463,-828 1463,-849 1463,-872 1463,-890"/>
<polygon style="fill:black;stroke:black;" points="1459.5,-890 1463,-900 1466.5,-890 1459.5,-890"/>
<text text-anchor="middle" x="1469" y="-733.9" style="font-family:Times New Roman;font-size:14.00;">&gt;</text>
</g>
<!-- OSProcessingInstruction1&#45;&gt;OSProcessingInstruction -->
<g id="edge32" class="edge"><title>OSProcessingInstruction1&#45;&gt;OSProcessingInstruction</title>
<path style="fill:none;stroke:black;" d="M1356,-576C1335,-587 1305,-602 1278,-612 1251,-621 1222,-627 1194,-633"/>
<polygon style="fill:black;stroke:black;" points="1193.12,-629.607 1184,-635 1194.49,-636.471 1193.12,-629.607"/>
<text text-anchor="middle" x="1337" y="-598.9" style="font-family:Times New Roman;font-size:14.00;">S&#45;{?}</text>
</g>
<!-- OSProcessingInstruction1&#45;&gt;OSProcessingInstruction1 -->
<g id="edge30" class="edge"><title>OSProcessingInstruction1&#45;&gt;OSProcessingInstruction1</title>
<path style="fill:none;stroke:black;" d="M1509,-565C1527,-564 1539,-562 1539,-558 1539,-555 1531,-553 1519,-552"/>
<polygon style="fill:black;stroke:black;" points="1519.3,-548.512 1509,-551 1518.6,-555.478 1519.3,-548.512"/>
<text text-anchor="middle" x="1543" y="-553.9" style="font-family:Times New Roman;font-size:14.00;">?</text>
</g>
<!-- OSPIStringQuot&#45;&gt;OSProcessingInstruction -->
<g id="edge36" class="edge"><title>OSPIStringQuot&#45;&gt;OSProcessingInstruction</title>
<path style="fill:none;stroke:black;" d="M872,-575C889,-587 914,-602 938,-612 959,-620 982,-627 1003,-632"/>
<polygon style="fill:black;stroke:black;" points="1002.51,-635.471 1013,-634 1003.88,-628.607 1002.51,-635.471"/>
<text text-anchor="middle" x="944" y="-598.9" style="font-family:Times New Roman;font-size:14.00;">&quot;</text>
</g>
<!-- OSPIStringQuot&#45;&gt;OSPIStringQuot -->
<g id="edge38" class="edge"><title>OSPIStringQuot&#45;&gt;OSPIStringQuot</title>
<path style="fill:none;stroke:black;" d="M925,-566C941,-565 952,-562 952,-558 952,-555 945,-552 935,-551"/>
<polygon style="fill:black;stroke:black;" points="935.299,-547.512 925,-550 934.602,-554.478 935.299,-547.512"/>
<text text-anchor="middle" x="971" y="-553.9" style="font-family:Times New Roman;font-size:14.00;">S&#45;{&quot;}</text>
</g>
<!-- OSPIStringApos&#45;&gt;OSProcessingInstruction -->
<g id="edge42" class="edge"><title>OSPIStringApos&#45;&gt;OSProcessingInstruction</title>
<path style="fill:none;stroke:black;" d="M1091,-576C1090,-582 1089,-588 1089,-594 1088,-601 1088,-604 1089,-612 1089,-615 1089,-617 1089,-620"/>
<polygon style="fill:black;stroke:black;" points="1085.61,-620.881 1091,-630 1092.47,-619.508 1085.61,-620.881"/>
<text text-anchor="middle" x="1090" y="-598.9" style="font-family:Times New Roman;font-size:14.00;">&#39;</text>
</g>
<!-- OSPIStringApos&#45;&gt;OSPIStringApos -->
<g id="edge44" class="edge"><title>OSPIStringApos&#45;&gt;OSPIStringApos</title>
<path style="fill:none;stroke:black;" d="M1173,-566C1189,-565 1200,-562 1200,-558 1200,-555 1193,-552 1183,-551"/>
<polygon style="fill:black;stroke:black;" points="1183.3,-547.512 1173,-550 1182.6,-554.478 1183.3,-547.512"/>
<text text-anchor="middle" x="1217" y="-553.9" style="font-family:Times New Roman;font-size:14.00;">S&#45;{&#39;}</text>
</g>
<!-- XmlOuter -->
<g id="node35" class="node"><title>XmlOuter</title>
<ellipse style="fill:none;stroke:black;" cx="622" cy="-558" rx="57.8712" ry="18"/>
<text text-anchor="middle" x="622" y="-553.9" style="font-family:Times New Roman;font-size:14.00;">XmlOuter</text>
</g>
<!-- XmlOuter&#45;&gt;XmlOuter -->
<g id="edge48" class="edge"><title>XmlOuter&#45;&gt;XmlOuter</title>
<path style="fill:none;stroke:black;" d="M674,-566C688,-566 698,-563 698,-558 698,-554 693,-552 684,-551"/>
<polygon style="fill:black;stroke:black;" points="684.299,-547.512 674,-550 683.602,-554.478 684.299,-547.512"/>
<text text-anchor="middle" x="720" y="-553.9" style="font-family:Times New Roman;font-size:14.00;">S&#45;{&lt;}</text>
</g>
<!-- XmlOuterLT -->
<g id="node37" class="node"><title>XmlOuterLT</title>
<ellipse style="fill:none;stroke:black;" cx="743" cy="-468" rx="68.7933" ry="18"/>
<text text-anchor="middle" x="743" y="-463.9" style="font-family:Times New Roman;font-size:14.00;">XmlOuterLT</text>
</g>
<!-- XmlOuter&#45;&gt;XmlOuterLT -->
<g id="edge46" class="edge"><title>XmlOuter&#45;&gt;XmlOuterLT</title>
<path style="fill:none;stroke:black;" d="M644,-541C663,-527 690,-507 712,-491"/>
<polygon style="fill:black;stroke:black;" points="714.1,-493.8 720,-485 709.9,-488.2 714.1,-493.8"/>
<text text-anchor="middle" x="698" y="-508.9" style="font-family:Times New Roman;font-size:14.00;">&lt;</text>
</g>
<!-- XOClose0 -->
<g id="node40" class="node"><title>XOClose0</title>
<ellipse style="fill:none;stroke:black;" cx="1032" cy="-378" rx="57.1737" ry="18"/>
<text text-anchor="middle" x="1032" y="-373.9" style="font-family:Times New Roman;font-size:14.00;">XOClose0</text>
</g>
<!-- XmlOuterLT&#45;&gt;XOClose0 -->
<g id="edge50" class="edge"><title>XmlOuterLT&#45;&gt;XOClose0</title>
<path style="fill:none;stroke:black;" d="M806,-461C860,-454 933,-443 961,-432 977,-425 994,-413 1006,-402"/>
<polygon style="fill:black;stroke:black;" points="1008.78,-404.219 1014,-395 1004.17,-398.951 1008.78,-404.219"/>
<text text-anchor="middle" x="989" y="-418.9" style="font-family:Times New Roman;font-size:14.00;">/</text>
</g>
<!-- XOComment0 -->
<g id="node47" class="node"><title>XOComment0</title>
<ellipse style="fill:none;stroke:black;" cx="537" cy="-378" rx="78.0216" ry="18"/>
<text text-anchor="middle" x="537" y="-373.9" style="font-family:Times New Roman;font-size:14.00;">XOComment0</text>
</g>
<!-- XmlOuterLT&#45;&gt;XOComment0 -->
<g id="edge60" class="edge"><title>XmlOuterLT&#45;&gt;XOComment0</title>
<path style="fill:none;stroke:black;" d="M708,-453C673,-437 620,-415 582,-398"/>
<polygon style="fill:black;stroke:black;" points="583.56,-394.863 573,-394 580.717,-401.26 583.56,-394.863"/>
<text text-anchor="middle" x="661" y="-418.9" style="font-family:Times New Roman;font-size:14.00;">!</text>
</g>
<!-- XOProcessingInstruction0 -->
<g id="node59" class="node"><title>XOProcessingInstruction0</title>
<ellipse style="fill:none;stroke:black;" cx="768" cy="-378" rx="134.807" ry="18"/>
<text text-anchor="middle" x="768" y="-373.9" style="font-family:Times New Roman;font-size:14.00;">XOProcessingInstruction0</text>
</g>
<!-- XmlOuterLT&#45;&gt;XOProcessingInstruction0 -->
<g id="edge74" class="edge"><title>XmlOuterLT&#45;&gt;XOProcessingInstruction0</title>
<path style="fill:none;stroke:black;" d="M748,-450C751,-437 756,-420 760,-406"/>
<polygon style="fill:black;stroke:black;" points="763.479,-406.584 763,-396 756.774,-404.573 763.479,-406.584"/>
<text text-anchor="middle" x="761" y="-418.9" style="font-family:Times New Roman;font-size:14.00;">?</text>
</g>
<!-- XmlOuterLT&#45;&gt;XmlTag -->
<g id="edge102" class="edge"><title>XmlOuterLT&#45;&gt;XmlTag</title>
<path style="fill:none;stroke:black;" d="M682,-476C641,-485 588,-503 555,-540 512,-588 503,-667 502,-710"/>
<polygon style="fill:black;stroke:black;" points="498.5,-710 502,-720 505.5,-710 498.5,-710"/>
<text text-anchor="middle" x="530" y="-598.9" style="font-family:Times New Roman;font-size:14.00;">id</text>
</g>
<!-- XOClose0&#45;&gt;XmlOuter -->
<g id="edge52" class="edge"><title>XOClose0&#45;&gt;XmlOuter</title>
<path style="fill:none;stroke:black;" d="M1024,-396C1017,-408 1008,-422 996,-432 902,-503 765,-535 686,-549"/>
<polygon style="fill:black;stroke:black;" points="685.119,-545.607 676,-551 686.492,-552.471 685.119,-545.607"/>
<text text-anchor="middle" x="971" y="-463.9" style="font-family:Times New Roman;font-size:14.00;">&gt;</text>
</g>
<!-- XOClose -->
<g id="node43" class="node"><title>XOClose</title>
<ellipse style="fill:none;stroke:black;" cx="1060" cy="-288" rx="50.9221" ry="18"/>
<text text-anchor="middle" x="1060" y="-283.9" style="font-family:Times New Roman;font-size:14.00;">XOClose</text>
</g>
<!-- XOClose0&#45;&gt;XOClose -->
<g id="edge54" class="edge"><title>XOClose0&#45;&gt;XOClose</title>
<path style="fill:none;stroke:black;" d="M1038,-360C1042,-347 1047,-330 1051,-316"/>
<polygon style="fill:black;stroke:black;" points="1054.48,-316.584 1054,-306 1047.77,-314.573 1054.48,-316.584"/>
<text text-anchor="middle" x="1053" y="-328.9" style="font-family:Times New Roman;font-size:14.00;">id</text>
</g>
<!-- XOClose&#45;&gt;XmlOuter -->
<g id="edge56" class="edge"><title>XOClose&#45;&gt;XmlOuter</title>
<path style="fill:none;stroke:black;" d="M1075,-306C1091,-327 1113,-365 1098,-396 1069,-454 1040,-457 981,-486 929,-510 773,-536 685,-549"/>
<polygon style="fill:black;stroke:black;" points="684.119,-545.607 675,-551 685.492,-552.471 684.119,-545.607"/>
<text text-anchor="middle" x="1092" y="-418.9" style="font-family:Times New Roman;font-size:14.00;">&gt;</text>
</g>
<!-- XOClose&#45;&gt;XOClose -->
<g id="edge58" class="edge"><title>XOClose&#45;&gt;XOClose</title>
<path style="fill:none;stroke:black;" d="M1105,-296C1119,-296 1129,-293 1129,-288 1129,-284 1124,-282 1115,-281"/>
<polygon style="fill:black;stroke:black;" points="1115.3,-277.512 1105,-280 1114.6,-284.478 1115.3,-277.512"/>
<text text-anchor="middle" x="1139" y="-283.9" style="font-family:Times New Roman;font-size:14.00;">ws</text>
</g>
<!-- XOComment1 -->
<g id="node49" class="node"><title>XOComment1</title>
<ellipse style="fill:none;stroke:black;" cx="535" cy="-288" rx="78.0216" ry="18"/>
<text text-anchor="middle" x="535" y="-283.9" style="font-family:Times New Roman;font-size:14.00;">XOComment1</text>
</g>
<!-- XOComment0&#45;&gt;XOComment1 -->
<g id="edge62" class="edge"><title>XOComment0&#45;&gt;XOComment1</title>
<path style="fill:none;stroke:black;" d="M537,-360C536,-347 536,-331 536,-316"/>
<polygon style="fill:black;stroke:black;" points="539.478,-315.602 535,-306 532.512,-316.299 539.478,-315.602"/>
<text text-anchor="middle" x="540" y="-328.9" style="font-family:Times New Roman;font-size:14.00;">&#45;</text>
</g>
<!-- XOComment -->
<g id="node51" class="node"><title>XOComment</title>
<ellipse style="fill:none;stroke:black;" cx="201" cy="-198" rx="71.7694" ry="18"/>
<text text-anchor="middle" x="201" y="-193.9" style="font-family:Times New Roman;font-size:14.00;">XOComment</text>
</g>
<!-- XOComment1&#45;&gt;XOComment -->
<g id="edge64" class="edge"><title>XOComment1&#45;&gt;XOComment</title>
<path style="fill:none;stroke:black;" d="M484,-274C423,-258 324,-231 260,-214"/>
<polygon style="fill:black;stroke:black;" points="260.584,-210.521 250,-211 258.573,-217.226 260.584,-210.521"/>
<text text-anchor="middle" x="402" y="-238.9" style="font-family:Times New Roman;font-size:14.00;">&#45;</text>
</g>
<!-- XOComment2 -->
<g id="node53" class="node"><title>XOComment2</title>
<ellipse style="fill:none;stroke:black;" cx="262" cy="-108" rx="78.0216" ry="18"/>
<text text-anchor="middle" x="262" y="-103.9" style="font-family:Times New Roman;font-size:14.00;">XOComment2</text>
</g>
<!-- XOComment&#45;&gt;XOComment2 -->
<g id="edge66" class="edge"><title>XOComment&#45;&gt;XOComment2</title>
<path style="fill:none;stroke:black;" d="M223,-181C229,-175 235,-169 240,-162 246,-154 250,-144 253,-136"/>
<polygon style="fill:black;stroke:black;" points="256.536,-136.585 257,-126 250.036,-133.985 256.536,-136.585"/>
<text text-anchor="middle" x="254" y="-148.9" style="font-family:Times New Roman;font-size:14.00;">&#45;</text>
</g>
<!-- XOComment2&#45;&gt;XOComment -->
<g id="edge68" class="edge"><title>XOComment2&#45;&gt;XOComment</title>
<path style="fill:none;stroke:black;" d="M220,-123C211,-128 203,-135 198,-144 194,-151 193,-161 194,-170"/>
<polygon style="fill:black;stroke:black;" points="190.522,-170.398 195,-180 197.488,-169.701 190.522,-170.398"/>
<text text-anchor="middle" x="217" y="-148.9" style="font-family:Times New Roman;font-size:14.00;">S&#45;{&#45;}</text>
</g>
<!-- XOComment3 -->
<g id="node56" class="node"><title>XOComment3</title>
<ellipse style="fill:none;stroke:black;" cx="893" cy="-18" rx="78.0216" ry="18"/>
<text text-anchor="middle" x="893" y="-13.9" style="font-family:Times New Roman;font-size:14.00;">XOComment3</text>
</g>
<!-- XOComment2&#45;&gt;XOComment3 -->
<g id="edge70" class="edge"><title>XOComment2&#45;&gt;XOComment3</title>
<path style="fill:none;stroke:black;" d="M329,-98C447,-81 691,-47 816,-29"/>
<polygon style="fill:black;stroke:black;" points="816.881,-32.3933 826,-27 815.508,-25.5292 816.881,-32.3933"/>
<text text-anchor="middle" x="637" y="-58.9" style="font-family:Times New Roman;font-size:14.00;">&#45;</text>
</g>
<!-- XOComment3&#45;&gt;XmlOuterLT -->
<g id="edge72" class="edge"><title>XOComment3&#45;&gt;XmlOuterLT</title>
<path style="fill:none;stroke:black;" d="M933,-34C1003,-64 1137,-134 1091,-216 1067,-256 1034,-237 1000,-270 949,-316 965,-352 912,-396 879,-423 835,-441 801,-452"/>
<polygon style="fill:black;stroke:black;" points="799.573,-448.774 791,-455 801.584,-455.479 799.573,-448.774"/>
<text text-anchor="middle" x="1078" y="-238.9" style="font-family:Times New Roman;font-size:14.00;">&gt;</text>
</g>
<!-- XOProcessingInstruction -->
<g id="node61" class="node"><title>XOProcessingInstruction</title>
<ellipse style="fill:none;stroke:black;" cx="759" cy="-288" rx="128.053" ry="18"/>
<text text-anchor="middle" x="759" y="-283.9" style="font-family:Times New Roman;font-size:14.00;">XOProcessingInstruction</text>
</g>
<!-- XOProcessingInstruction0&#45;&gt;XOProcessingInstruction -->
<g id="edge76" class="edge"><title>XOProcessingInstruction0&#45;&gt;XOProcessingInstruction</title>
<path style="fill:none;stroke:black;" d="M766,-360C765,-347 764,-330 762,-316"/>
<polygon style="fill:black;stroke:black;" points="765.478,-315.602 761,-306 758.512,-316.299 765.478,-315.602"/>
<text text-anchor="middle" x="769" y="-328.9" style="font-family:Times New Roman;font-size:14.00;">id</text>
</g>
<!-- XOProcessingInstruction&#45;&gt;XOProcessingInstruction -->
<g id="edge78" class="edge"><title>XOProcessingInstruction&#45;&gt;XOProcessingInstruction</title>
<path style="fill:none;stroke:black;" d="M875,-296C893,-294 905,-292 905,-288 905,-285 897,-283 885,-281"/>
<polygon style="fill:black;stroke:black;" points="885.299,-277.512 875,-280 884.602,-284.478 885.299,-277.512"/>
<text text-anchor="middle" x="915" y="-283.9" style="font-family:Times New Roman;font-size:14.00;">ws</text>
</g>
<!-- XOProcessingInstruction1 -->
<g id="node64" class="node"><title>XOProcessingInstruction1</title>
<ellipse style="fill:none;stroke:black;" cx="426" cy="-198" rx="134.807" ry="18"/>
<text text-anchor="middle" x="426" y="-193.9" style="font-family:Times New Roman;font-size:14.00;">XOProcessingInstruction1</text>
</g>
<!-- XOProcessingInstruction&#45;&gt;XOProcessingInstruction1 -->
<g id="edge80" class="edge"><title>XOProcessingInstruction&#45;&gt;XOProcessingInstruction1</title>
<path style="fill:none;stroke:black;" d="M674,-274C642,-268 606,-261 573,-252 541,-243 505,-230 478,-219"/>
<polygon style="fill:black;stroke:black;" points="478.585,-215.464 468,-215 475.985,-221.964 478.585,-215.464"/>
<text text-anchor="middle" x="589" y="-238.9" style="font-family:Times New Roman;font-size:14.00;">?</text>
</g>
<!-- XOPIStringQuot -->
<g id="node69" class="node"><title>XOPIStringQuot</title>
<ellipse style="fill:none;stroke:black;" cx="938" cy="-198" rx="87.7515" ry="18"/>
<text text-anchor="middle" x="938" y="-193.9" style="font-family:Times New Roman;font-size:14.00;">XOPIStringQuot</text>
</g>
<!-- XOProcessingInstruction&#45;&gt;XOPIStringQuot -->
<g id="edge88" class="edge"><title>XOProcessingInstruction&#45;&gt;XOPIStringQuot</title>
<path style="fill:none;stroke:black;" d="M794,-271C823,-256 865,-235 896,-219"/>
<polygon style="fill:black;stroke:black;" points="897.283,-222.26 905,-215 894.44,-215.863 897.283,-222.26"/>
<text text-anchor="middle" x="867" y="-238.9" style="font-family:Times New Roman;font-size:14.00;">&quot;</text>
</g>
<!-- XOPIStringApos -->
<g id="node73" class="node"><title>XOPIStringApos</title>
<ellipse style="fill:none;stroke:black;" cx="692" cy="-198" rx="87.0549" ry="18"/>
<text text-anchor="middle" x="692" y="-193.9" style="font-family:Times New Roman;font-size:14.00;">XOPIStringApos</text>
</g>
<!-- XOProcessingInstruction&#45;&gt;XOPIStringApos -->
<g id="edge94" class="edge"><title>XOProcessingInstruction&#45;&gt;XOPIStringApos</title>
<path style="fill:none;stroke:black;" d="M745,-270C736,-257 722,-239 712,-224"/>
<polygon style="fill:black;stroke:black;" points="714.8,-221.9 706,-216 709.2,-226.1 714.8,-221.9"/>
<text text-anchor="middle" x="731" y="-238.9" style="font-family:Times New Roman;font-size:14.00;">&#39;</text>
</g>
<!-- XOProcessingInstruction1&#45;&gt;XmlOuter -->
<g id="edge82" class="edge"><title>XOProcessingInstruction1&#45;&gt;XmlOuter</title>
<path style="fill:none;stroke:black;" d="M427,-216C428,-234 429,-263 429,-288 429,-468 429,-468 429,-468 429,-498 510,-527 567,-543"/>
<polygon style="fill:black;stroke:black;" points="566.416,-546.479 577,-546 568.427,-539.774 566.416,-546.479"/>
<text text-anchor="middle" x="435" y="-373.9" style="font-family:Times New Roman;font-size:14.00;">&gt;</text>
</g>
<!-- XOProcessingInstruction1&#45;&gt;XOProcessingInstruction -->
<g id="edge86" class="edge"><title>XOProcessingInstruction1&#45;&gt;XOProcessingInstruction</title>
<path style="fill:none;stroke:black;" d="M498,-213C524,-219 554,-226 581,-234 620,-244 663,-257 698,-268"/>
<polygon style="fill:black;stroke:black;" points="697.416,-271.479 708,-271 699.427,-264.774 697.416,-271.479"/>
<text text-anchor="middle" x="670" y="-238.9" style="font-family:Times New Roman;font-size:14.00;">S&#45;{?}</text>
</g>
<!-- XOProcessingInstruction1&#45;&gt;XOProcessingInstruction1 -->
<g id="edge84" class="edge"><title>XOProcessingInstruction1&#45;&gt;XOProcessingInstruction1</title>
<path style="fill:none;stroke:black;" d="M549,-205C567,-204 579,-202 579,-198 579,-195 571,-193 559,-192"/>
<polygon style="fill:black;stroke:black;" points="559.299,-188.512 549,-191 558.602,-195.478 559.299,-188.512"/>
<text text-anchor="middle" x="583" y="-193.9" style="font-family:Times New Roman;font-size:14.00;">?</text>
</g>
<!-- XOPIStringQuot&#45;&gt;XOProcessingInstruction -->
<g id="edge90" class="edge"><title>XOPIStringQuot&#45;&gt;XOProcessingInstruction</title>
<path style="fill:none;stroke:black;" d="M921,-216C909,-227 891,-242 874,-252 861,-259 847,-264 833,-269"/>
<polygon style="fill:black;stroke:black;" points="831.573,-265.774 823,-272 833.584,-272.479 831.573,-265.774"/>
<text text-anchor="middle" x="900" y="-238.9" style="font-family:Times New Roman;font-size:14.00;">&quot;</text>
</g>
<!-- XOPIStringQuot&#45;&gt;XOPIStringQuot -->
<g id="edge92" class="edge"><title>XOPIStringQuot&#45;&gt;XOPIStringQuot</title>
<path style="fill:none;stroke:black;" d="M1017,-206C1033,-205 1044,-202 1044,-198 1044,-195 1037,-192 1027,-191"/>
<polygon style="fill:black;stroke:black;" points="1027.3,-187.512 1017,-190 1026.6,-194.478 1027.3,-187.512"/>
<text text-anchor="middle" x="1063" y="-193.9" style="font-family:Times New Roman;font-size:14.00;">S&#45;{&quot;}</text>
</g>
<!-- XOPIStringApos&#45;&gt;XOProcessingInstruction -->
<g id="edge96" class="edge"><title>XOPIStringApos&#45;&gt;XOProcessingInstruction</title>
<path style="fill:none;stroke:black;" d="M695,-216C698,-227 703,-241 711,-252 714,-256 718,-260 722,-264"/>
<polygon style="fill:black;stroke:black;" points="719.9,-266.8 730,-270 724.1,-261.2 719.9,-266.8"/>
<text text-anchor="middle" x="712" y="-238.9" style="font-family:Times New Roman;font-size:14.00;">&#39;</text>
</g>
<!-- XOPIStringApos&#45;&gt;XOPIStringApos -->
<g id="edge98" class="edge"><title>XOPIStringApos&#45;&gt;XOPIStringApos</title>
<path style="fill:none;stroke:black;" d="M770,-206C786,-205 797,-202 797,-198 797,-195 790,-192 780,-191"/>
<polygon style="fill:black;stroke:black;" points="780.299,-187.512 770,-190 779.602,-194.478 780.299,-187.512"/>
<text text-anchor="middle" x="814" y="-193.9" style="font-family:Times New Roman;font-size:14.00;">S&#45;{&#39;}</text>
</g>
<!-- XmlTag&#45;&gt;XmlOuter -->
<g id="edge106" class="edge"><title>XmlTag&#45;&gt;XmlOuter</title>
<path style="fill:none;stroke:black;" d="M510,-720C519,-698 537,-659 557,-630 569,-613 584,-596 597,-582"/>
<polygon style="fill:black;stroke:black;" points="599.404,-584.546 604,-575 594.454,-579.596 599.404,-584.546"/>
<text text-anchor="middle" x="563" y="-643.9" style="font-family:Times New Roman;font-size:14.00;">&gt;</text>
</g>
<!-- XmlTag&#45;&gt;XmlTag -->
<g id="edge104" class="edge"><title>XmlTag&#45;&gt;XmlTag</title>
<path style="fill:none;stroke:black;" d="M543,-746C556,-746 566,-743 566,-738 566,-734 561,-732 553,-731"/>
<polygon style="fill:black;stroke:black;" points="553.299,-727.512 543,-730 552.602,-734.478 553.299,-727.512"/>
<text text-anchor="middle" x="576" y="-733.9" style="font-family:Times New Roman;font-size:14.00;">ws</text>
</g>
<!-- XTNET -->
<g id="node82" class="node"><title>XTNET</title>
<ellipse style="fill:none;stroke:black;" cx="622" cy="-648" rx="43.9728" ry="18"/>
<text text-anchor="middle" x="622" y="-643.9" style="font-family:Times New Roman;font-size:14.00;">XTNET</text>
</g>
<!-- XmlTag&#45;&gt;XTNET -->
<g id="edge108" class="edge"><title>XmlTag&#45;&gt;XTNET</title>
<path style="fill:none;stroke:black;" d="M529,-723C539,-717 552,-710 562,-702 574,-692 587,-681 598,-672"/>
<polygon style="fill:black;stroke:black;" points="600.404,-674.546 605,-665 595.454,-669.596 600.404,-674.546"/>
<text text-anchor="middle" x="587" y="-688.9" style="font-family:Times New Roman;font-size:14.00;">/</text>
</g>
<!-- XTAttr0 -->
<g id="node85" class="node"><title>XTAttr0</title>
<ellipse style="fill:none;stroke:black;" cx="295" cy="-648" rx="50.0315" ry="18"/>
<text text-anchor="middle" x="295" y="-643.9" style="font-family:Times New Roman;font-size:14.00;">XTAttr0</text>
</g>
<!-- XmlTag&#45;&gt;XTAttr0 -->
<g id="edge112" class="edge"><title>XmlTag&#45;&gt;XTAttr0</title>
<path style="fill:none;stroke:black;" d="M457,-734C425,-730 381,-721 347,-702 335,-695 324,-683 315,-673"/>
<polygon style="fill:black;stroke:black;" points="317.219,-670.221 308,-665 311.951,-674.831 317.219,-670.221"/>
<text text-anchor="middle" x="359" y="-688.9" style="font-family:Times New Roman;font-size:14.00;">id</text>
</g>
<!-- XTNET&#45;&gt;XmlOuter -->
<g id="edge110" class="edge"><title>XTNET&#45;&gt;XmlOuter</title>
<path style="fill:none;stroke:black;" d="M622,-630C622,-617 622,-601 622,-586"/>
<polygon style="fill:black;stroke:black;" points="625.5,-586 622,-576 618.5,-586 625.5,-586"/>
<text text-anchor="middle" x="628" y="-598.9" style="font-family:Times New Roman;font-size:14.00;">&gt;</text>
</g>
<!-- XTAttr0&#45;&gt;XmlTag -->
<g id="edge114" class="edge"><title>XTAttr0&#45;&gt;XmlTag</title>
<path style="fill:none;stroke:black;" d="M293,-666C293,-678 294,-692 303,-702 323,-722 394,-731 446,-735"/>
<polygon style="fill:black;stroke:black;" points="445.701,-738.488 456,-736 446.398,-731.522 445.701,-738.488"/>
<text text-anchor="middle" x="316" y="-688.9" style="font-family:Times New Roman;font-size:14.00;">ws</text>
</g>
<!-- XTAttr1 -->
<g id="node88" class="node"><title>XTAttr1</title>
<ellipse style="fill:none;stroke:black;" cx="232" cy="-558" rx="50.0315" ry="18"/>
<text text-anchor="middle" x="232" y="-553.9" style="font-family:Times New Roman;font-size:14.00;">XTAttr1</text>
</g>
<!-- XTAttr0&#45;&gt;XTAttr1 -->
<g id="edge116" class="edge"><title>XTAttr0&#45;&gt;XTAttr1</title>
<path style="fill:none;stroke:black;" d="M283,-630C274,-617 261,-599 250,-584"/>
<polygon style="fill:black;stroke:black;" points="252.8,-581.9 244,-576 247.2,-586.1 252.8,-581.9"/>
<text text-anchor="middle" x="277" y="-598.9" style="font-family:Times New Roman;font-size:14.00;">=</text>
</g>
<!-- XTAttr2 -->
<g id="node90" class="node"><title>XTAttr2</title>
<ellipse style="fill:none;stroke:black;" cx="201" cy="-468" rx="50.0315" ry="18"/>
<text text-anchor="middle" x="201" y="-463.9" style="font-family:Times New Roman;font-size:14.00;">XTAttr2</text>
</g>
<!-- XTAttr1&#45;&gt;XTAttr2 -->
<g id="edge118" class="edge"><title>XTAttr1&#45;&gt;XTAttr2</title>
<path style="fill:none;stroke:black;" d="M193,-546C182,-541 170,-533 163,-522 157,-511 162,-500 170,-491"/>
<polygon style="fill:black;stroke:black;" points="172.779,-493.219 178,-484 168.169,-487.951 172.779,-493.219"/>
<text text-anchor="middle" x="179" y="-508.9" style="font-family:Times New Roman;font-size:14.00;">real</text>
</g>
<!-- XTAttr1&#45;&gt;XTAttr2 -->
<g id="edge120" class="edge"><title>XTAttr1&#45;&gt;XTAttr2</title>
<path style="fill:none;stroke:black;" d="M221,-540C218,-534 215,-528 212,-522 209,-514 207,-505 205,-496"/>
<polygon style="fill:black;stroke:black;" points="208.393,-495.119 203,-486 201.529,-496.492 208.393,-495.119"/>
<text text-anchor="middle" x="225" y="-508.9" style="font-family:Times New Roman;font-size:14.00;">int</text>
</g>
<!-- XTAttr1&#45;&gt;XTAttr2 -->
<g id="edge122" class="edge"><title>XTAttr1&#45;&gt;XTAttr2</title>
<path style="fill:none;stroke:black;" d="M235,-540C236,-529 236,-515 231,-504 230,-500 228,-496 226,-493"/>
<polygon style="fill:black;stroke:black;" points="228.219,-490.221 219,-485 222.951,-494.831 228.219,-490.221"/>
<text text-anchor="middle" x="243" y="-508.9" style="font-family:Times New Roman;font-size:14.00;">id</text>
</g>
<!-- XTAttrQuot -->
<g id="node94" class="node"><title>XTAttrQuot</title>
<ellipse style="fill:none;stroke:black;" cx="67" cy="-378" rx="66.9043" ry="18"/>
<text text-anchor="middle" x="67" y="-373.9" style="font-family:Times New Roman;font-size:14.00;">XTAttrQuot</text>
</g>
<!-- XTAttr1&#45;&gt;XTAttrQuot -->
<g id="edge124" class="edge"><title>XTAttr1&#45;&gt;XTAttrQuot</title>
<path style="fill:none;stroke:black;" d="M196,-545C183,-539 169,-532 158,-522 121,-488 94,-437 79,-405"/>
<polygon style="fill:black;stroke:black;" points="82.2598,-403.717 75,-396 75.8631,-406.56 82.2598,-403.717"/>
<text text-anchor="middle" x="131" y="-463.9" style="font-family:Times New Roman;font-size:14.00;">&quot;</text>
</g>
<!-- XTAttrApos -->
<g id="node96" class="node"><title>XTAttrApos</title>
<ellipse style="fill:none;stroke:black;" cx="274" cy="-378" rx="66.2071" ry="18"/>
<text text-anchor="middle" x="274" y="-373.9" style="font-family:Times New Roman;font-size:14.00;">XTAttrApos</text>
</g>
<!-- XTAttr1&#45;&gt;XTAttrApos -->
<g id="edge126" class="edge"><title>XTAttr1&#45;&gt;XTAttrApos</title>
<path style="fill:none;stroke:black;" d="M275,-548C307,-539 350,-520 371,-486 392,-452 351,-419 316,-399"/>
<polygon style="fill:black;stroke:black;" points="317.441,-395.797 307,-394 314.042,-401.916 317.441,-395.797"/>
<text text-anchor="middle" x="380" y="-463.9" style="font-family:Times New Roman;font-size:14.00;">&#39;</text>
</g>
<!-- XTAttr2&#45;&gt;XmlTag -->
<g id="edge138" class="edge"><title>XTAttr2&#45;&gt;XmlTag</title>
<path style="fill:none;stroke:black;" d="M226,-484C235,-490 245,-497 253,-504 342,-575 436,-670 479,-714"/>
<polygon style="fill:black;stroke:black;" points="476.454,-716.404 486,-721 481.404,-711.454 476.454,-716.404"/>
<text text-anchor="middle" x="389" y="-598.9" style="font-family:Times New Roman;font-size:14.00;">ws</text>
</g>
<!-- XTAttr2&#45;&gt;XTAttr2 -->
<g id="edge128" class="edge"><title>XTAttr2&#45;&gt;XTAttr2</title>
<path style="fill:none;stroke:black;" d="M251,-470C261,-470 269,-469 269,-468 269,-467 266,-467 261,-466"/>
<polygon style="fill:black;stroke:black;" points="261,-462.5 251,-466 261,-469.5 261,-462.5"/>
<text text-anchor="middle" x="282" y="-463.9" style="font-family:Times New Roman;font-size:14.00;">real</text>
</g>
<!-- XTAttr2&#45;&gt;XTAttr2 -->
<g id="edge130" class="edge"><title>XTAttr2&#45;&gt;XTAttr2</title>
<path style="fill:none;stroke:black;" d="M236,-481C264,-486 295,-482 295,-468 295,-456 271,-451 246,-454"/>
<polygon style="fill:black;stroke:black;" points="245.602,-450.522 236,-455 246.299,-457.488 245.602,-450.522"/>
<text text-anchor="middle" x="305" y="-463.9" style="font-family:Times New Roman;font-size:14.00;">int</text>
</g>
<!-- XTAttr2&#45;&gt;XTAttr2 -->
<g id="edge132" class="edge"><title>XTAttr2&#45;&gt;XTAttr2</title>
<path style="fill:none;stroke:black;" d="M235,-481C271,-489 314,-485 314,-468 314,-453 278,-448 245,-453"/>
<polygon style="fill:black;stroke:black;" points="244.119,-449.607 235,-455 245.492,-456.471 244.119,-449.607"/>
<text text-anchor="middle" x="320" y="-463.9" style="font-family:Times New Roman;font-size:14.00;">id</text>
</g>
<!-- XTAttr2&#45;&gt;XTAttrQuot -->
<g id="edge134" class="edge"><title>XTAttr2&#45;&gt;XTAttrQuot</title>
<path style="fill:none;stroke:black;" d="M182,-451C168,-440 150,-425 132,-414 125,-409 116,-404 108,-399"/>
<polygon style="fill:black;stroke:black;" points="109.441,-395.797 99,-394 106.042,-401.916 109.441,-395.797"/>
<text text-anchor="middle" x="164" y="-418.9" style="font-family:Times New Roman;font-size:14.00;">&quot;</text>
</g>
<!-- XTAttr2&#45;&gt;XTAttrApos -->
<g id="edge136" class="edge"><title>XTAttr2&#45;&gt;XTAttrApos</title>
<path style="fill:none;stroke:black;" d="M222,-451C228,-446 235,-439 241,-432 248,-424 254,-414 260,-405"/>
<polygon style="fill:black;stroke:black;" points="263.203,-406.441 265,-396 257.084,-403.042 263.203,-406.441"/>
<text text-anchor="middle" x="257" y="-418.9" style="font-family:Times New Roman;font-size:14.00;">&#39;</text>
</g>
<!-- XTAttrQuot&#45;&gt;XTAttr2 -->
<g id="edge140" class="edge"><title>XTAttrQuot&#45;&gt;XTAttr2</title>
<path style="fill:none;stroke:black;" d="M120,-389C137,-394 155,-402 169,-414 178,-421 185,-431 190,-441"/>
<polygon style="fill:black;stroke:black;" points="186.74,-442.283 194,-450 193.137,-439.44 186.74,-442.283"/>
<text text-anchor="middle" x="190" y="-418.9" style="font-family:Times New Roman;font-size:14.00;">&quot;</text>
</g>
<!-- XTAttrQuot&#45;&gt;XTAttrQuot -->
<g id="edge142" class="edge"><title>XTAttrQuot&#45;&gt;XTAttrQuot</title>
<path style="fill:none;stroke:black;" d="M127,-386C141,-385 152,-383 152,-378 152,-374 146,-372 137,-371"/>
<polygon style="fill:black;stroke:black;" points="137.299,-367.512 127,-370 136.602,-374.478 137.299,-367.512"/>
<text text-anchor="middle" x="171" y="-373.9" style="font-family:Times New Roman;font-size:14.00;">S&#45;{&quot;}</text>
</g>
<!-- XTAttrApos&#45;&gt;XTAttr2 -->
<g id="edge144" class="edge"><title>XTAttrApos&#45;&gt;XTAttr2</title>
<path style="fill:none;stroke:black;" d="M257,-396C252,-401 246,-408 241,-414 233,-423 226,-433 220,-441"/>
<polygon style="fill:black;stroke:black;" points="216.635,-439.738 214,-450 222.459,-443.621 216.635,-439.738"/>
<text text-anchor="middle" x="243" y="-418.9" style="font-family:Times New Roman;font-size:14.00;">&#39;</text>
</g>
<!-- XTAttrApos&#45;&gt;XTAttrApos -->
<g id="edge146" class="edge"><title>XTAttrApos&#45;&gt;XTAttrApos</title>
<path style="fill:none;stroke:black;" d="M333,-386C347,-385 358,-383 358,-378 358,-374 352,-372 343,-371"/>
<polygon style="fill:black;stroke:black;" points="343.299,-367.512 333,-370 342.602,-374.478 343.299,-367.512"/>
<text text-anchor="middle" x="376" y="-373.9" style="font-family:Times New Roman;font-size:14.00;">S&#45;{&#39;}</text>
</g>
</g>
</svg>
