<?xml version="1.0" encoding="UTF-8" standalone="no"?>
<!DOCTYPE svg PUBLIC "-//W3C//DTD SVG 1.0//EN"
 "http://www.w3.org/TR/2001/REC-SVG-20010904/DTD/svg10.dtd" [
 <!ATTLIST svg xmlns:xlink CDATA #FIXED "http://www.w3.org/1999/xlink">
]>
<!-- Generated by Graphviz version 2.20.2 (Tue Mar &#160;2 19:03:41 UTC 2010)
 -->
<!-- Title: XML Pages: 1 -->
<svg width="1641pt" height="944pt"
 viewBox="0.00 0.00 1641.00 944.00" xmlns="http://www.w3.org/2000/svg" xmlns:xlink="http://www.w3.org/1999/xlink">
<g id="graph0" class="graph" transform="scale(1 1) rotate(0) translate(4 940)">
<title>XML</title>
<polygon style="fill:white;stroke:white;" points="-4,4 -4,-940 1637,-940 1637,4 -4,4"/>
<!-- start -->
<g id="node1" class="node"><title>start</title>
<ellipse style="fill:none;stroke:black;" cx="1187" cy="-918" rx="34.0492" ry="18"/>
<text text-anchor="middle" x="1187" y="-913.9" style="font-family:Times New Roman;font-size:14.00;">start</text>
</g>
<!-- open -->
<g id="node3" class="node"><title>open</title>
<ellipse style="fill:none;stroke:black;" cx="1187" cy="-738" rx="34.2406" ry="18"/>
<text text-anchor="middle" x="1187" y="-733.9" style="font-family:Times New Roman;font-size:14.00;">open</text>
</g>
<!-- start&#45;&gt;open -->
<g id="edge2" class="edge"><title>start&#45;&gt;open</title>
<path style="fill:none;stroke:black;" d="M1187,-900C1187,-868 1187,-803 1187,-766"/>
<polygon style="fill:black;stroke:black;" points="1190.5,-766 1187,-756 1183.5,-766 1190.5,-766"/>
<text text-anchor="middle" x="1193" y="-823.9" style="font-family:Times New Roman;font-size:14.00;">&lt;</text>
</g>
<!-- error -->
<g id="node5" class="node"><title>error</title>
<ellipse style="fill:none;stroke:black;" cx="1074" cy="-18" rx="34.9399" ry="18"/>
<text text-anchor="middle" x="1074" y="-13.9" style="font-family:Times New Roman;font-size:14.00;">error</text>
</g>
<!-- start&#45;&gt;error -->
<g id="edge4" class="edge"><title>start&#45;&gt;error</title>
<path style="fill:none;stroke:black;" d="M1153,-917C958,-913 0,-887 0,-828 0,-828 0,-828 0,-108 0,-75 21,-67 50,-54 95,-33 836,-21 1029,-18"/>
<polygon style="fill:black;stroke:black;" points="1029,-21.5001 1039,-18 1029,-14.5001 1029,-21.5001"/>
<text text-anchor="middle" x="6" y="-463.9" style="font-family:Times New Roman;font-size:14.00;">&gt;</text>
</g>
<!-- text -->
<g id="node7" class="node"><title>text</title>
<ellipse style="fill:none;stroke:black;" cx="1432" cy="-828" rx="30.7734" ry="18"/>
<text text-anchor="middle" x="1432" y="-823.9" style="font-family:Times New Roman;font-size:14.00;">text</text>
</g>
<!-- start&#45;&gt;text -->
<g id="edge6" class="edge"><title>start&#45;&gt;text</title>
<path style="fill:none;stroke:black;" d="M1221,-915C1270,-909 1359,-898 1387,-882 1399,-875 1409,-864 1416,-853"/>
<polygon style="fill:black;stroke:black;" points="1418.8,-855.1 1422,-845 1413.2,-850.9 1418.8,-855.1"/>
<text text-anchor="middle" x="1428" y="-868.9" style="font-family:Times New Roman;font-size:14.00;">[^&lt;&gt;]</text>
</g>
<!-- open&#45;&gt;error -->
<g id="edge70" class="edge"><title>open&#45;&gt;error</title>
<path style="fill:none;stroke:black;" d="M1172,-722C1125,-670 984,-500 984,-333 984,-333 984,-333 984,-108 984,-75 1014,-50 1039,-35"/>
<polygon style="fill:black;stroke:black;" points="1040.96,-37.916 1048,-30 1037.56,-31.7969 1040.96,-37.916"/>
<text text-anchor="middle" x="1081" y="-373.9" style="font-family:Times New Roman;font-size:14.00;">[&lt;&gt;&quot;()=?{\[\]},;.:\&#45;#&#39;+*~]</text>
</g>
<!-- comment0 -->
<g id="node12" class="node"><title>comment0</title>
<ellipse style="fill:none;stroke:black;" cx="1321" cy="-468" rx="61.8445" ry="18"/>
<text text-anchor="middle" x="1321" y="-463.9" style="font-family:Times New Roman;font-size:14.00;">comment0</text>
</g>
<!-- open&#45;&gt;comment0 -->
<g id="edge14" class="edge"><title>open&#45;&gt;comment0</title>
<path style="fill:none;stroke:black;" d="M1188,-720C1189,-698 1193,-659 1206,-630 1228,-576 1271,-524 1297,-494"/>
<polygon style="fill:black;stroke:black;" points="1300.05,-495.831 1304,-486 1294.78,-491.221 1300.05,-495.831"/>
<text text-anchor="middle" x="1224" y="-598.9" style="font-family:Times New Roman;font-size:14.00;">!</text>
</g>
<!-- close0 -->
<g id="node41" class="node"><title>close0</title>
<ellipse style="fill:none;stroke:black;" cx="1256" cy="-648" rx="40.9981" ry="18"/>
<text text-anchor="middle" x="1256" y="-643.9" style="font-family:Times New Roman;font-size:14.00;">close0</text>
</g>
<!-- open&#45;&gt;close0 -->
<g id="edge54" class="edge"><title>open&#45;&gt;close0</title>
<path style="fill:none;stroke:black;" d="M1200,-721C1210,-708 1225,-688 1237,-673"/>
<polygon style="fill:black;stroke:black;" points="1239.8,-675.1 1243,-665 1234.2,-670.9 1239.8,-675.1"/>
<text text-anchor="middle" x="1229" y="-688.9" style="font-family:Times New Roman;font-size:14.00;">/</text>
</g>
<!-- tag -->
<g id="node53" class="node"><title>tag</title>
<ellipse style="fill:none;stroke:black;" cx="754" cy="-648" rx="27.1004" ry="18"/>
<text text-anchor="middle" x="754" y="-643.9" style="font-family:Times New Roman;font-size:14.00;">tag</text>
</g>
<!-- open&#45;&gt;tag -->
<g id="edge72" class="edge"><title>open&#45;&gt;tag</title>
<path style="fill:none;stroke:black;" d="M1154,-733C1111,-727 1036,-715 972,-702 907,-688 832,-669 789,-658"/>
<polygon style="fill:black;stroke:black;" points="789.584,-654.521 779,-655 787.573,-661.226 789.584,-654.521"/>
<text text-anchor="middle" x="1008" y="-688.9" style="font-family:Times New Roman;font-size:14.00;">{sonst}</text>
</g>
<!-- text&#45;&gt;open -->
<g id="edge12" class="edge"><title>text&#45;&gt;open</title>
<path style="fill:none;stroke:black;" d="M1406,-818C1363,-802 1275,-770 1225,-752"/>
<polygon style="fill:black;stroke:black;" points="1225.58,-748.464 1215,-748 1222.98,-754.964 1225.58,-748.464"/>
<text text-anchor="middle" x="1336" y="-778.9" style="font-family:Times New Roman;font-size:14.00;">&lt;</text>
</g>
<!-- text&#45;&gt;error -->
<g id="edge10" class="edge"><title>text&#45;&gt;error</title>
<path style="fill:none;stroke:black;" d="M1444,-811C1485,-751 1621,-544 1621,-468 1621,-468 1621,-468 1621,-108 1621,-102 1561,-67 1512,-54 1439,-33 1215,-23 1119,-19"/>
<polygon style="fill:black;stroke:black;" points="1119,-15.5001 1109,-19 1119,-22.5001 1119,-15.5001"/>
<text text-anchor="middle" x="1627" y="-418.9" style="font-family:Times New Roman;font-size:14.00;">&gt;</text>
</g>
<!-- text&#45;&gt;text -->
<g id="edge8" class="edge"><title>text&#45;&gt;text</title>
<path style="fill:none;stroke:black;" d="M1460,-836C1471,-837 1481,-834 1481,-828 1481,-824 1476,-821 1470,-820"/>
<polygon style="fill:black;stroke:black;" points="1470,-816.5 1460,-820 1470,-823.5 1470,-816.5"/>
<text text-anchor="middle" x="1504" y="-823.9" style="font-family:Times New Roman;font-size:14.00;">[^&lt;&gt;]</text>
</g>
<!-- comment0&#45;&gt;error -->
<g id="edge18" class="edge"><title>comment0&#45;&gt;error</title>
<path style="fill:none;stroke:black;" d="M1332,-450C1340,-436 1350,-415 1355,-396 1358,-380 1358,-375 1355,-360 1344,-308 1325,-301 1307,-252 1273,-163 1301,-114 1228,-54 1211,-40 1158,-30 1118,-24"/>
<polygon style="fill:black;stroke:black;" points="1118.49,-20.5292 1108,-22 1117.12,-27.3933 1118.49,-20.5292"/>
<text text-anchor="middle" x="1326" y="-238.9" style="font-family:Times New Roman;font-size:14.00;">[^&#45;\[]</text>
</g>
<!-- comment1 -->
<g id="node14" class="node"><title>comment1</title>
<ellipse style="fill:none;stroke:black;" cx="1284" cy="-378" rx="61.8445" ry="18"/>
<text text-anchor="middle" x="1284" y="-373.9" style="font-family:Times New Roman;font-size:14.00;">comment1</text>
</g>
<!-- comment0&#45;&gt;comment1 -->
<g id="edge16" class="edge"><title>comment0&#45;&gt;comment1</title>
<path style="fill:none;stroke:black;" d="M1314,-450C1308,-437 1301,-420 1296,-406"/>
<polygon style="fill:black;stroke:black;" points="1298.96,-403.985 1292,-396 1292.46,-406.585 1298.96,-403.985"/>
<text text-anchor="middle" x="1307" y="-418.9" style="font-family:Times New Roman;font-size:14.00;">&#45;</text>
</g>
<!-- cdata1 -->
<g id="node28" class="node"><title>cdata1</title>
<ellipse style="fill:none;stroke:black;" cx="1446" cy="-378" rx="43.7776" ry="18"/>
<text text-anchor="middle" x="1446" y="-373.9" style="font-family:Times New Roman;font-size:14.00;">cdata1</text>
</g>
<!-- comment0&#45;&gt;cdata1 -->
<g id="edge36" class="edge"><title>comment0&#45;&gt;cdata1</title>
<path style="fill:none;stroke:black;" d="M1353,-452C1364,-447 1377,-439 1388,-432 1400,-423 1412,-412 1423,-402"/>
<polygon style="fill:black;stroke:black;" points="1425.4,-404.546 1430,-395 1420.45,-399.596 1425.4,-404.546"/>
<text text-anchor="middle" x="1411" y="-418.9" style="font-family:Times New Roman;font-size:14.00;">\[</text>
</g>
<!-- comment1&#45;&gt;error -->
<g id="edge22" class="edge"><title>comment1&#45;&gt;error</title>
<path style="fill:none;stroke:black;" d="M1281,-360C1270,-295 1231,-76 1210,-54 1197,-40 1153,-31 1118,-25"/>
<polygon style="fill:black;stroke:black;" points="1118.49,-21.5292 1108,-23 1117.12,-28.3933 1118.49,-21.5292"/>
<text text-anchor="middle" x="1267" y="-193.9" style="font-family:Times New Roman;font-size:14.00;">[^&#45;]</text>
</g>
<!-- comment -->
<g id="node17" class="node"><title>comment</title>
<ellipse style="fill:none;stroke:black;" cx="1067" cy="-288" rx="55.0898" ry="18"/>
<text text-anchor="middle" x="1067" y="-283.9" style="font-family:Times New Roman;font-size:14.00;">comment</text>
</g>
<!-- comment1&#45;&gt;comment -->
<g id="edge20" class="edge"><title>comment1&#45;&gt;comment</title>
<path style="fill:none;stroke:black;" d="M1238,-366C1216,-360 1190,-352 1167,-342 1145,-333 1121,-320 1102,-309"/>
<polygon style="fill:black;stroke:black;" points="1103.44,-305.797 1093,-304 1100.04,-311.916 1103.44,-305.797"/>
<text text-anchor="middle" x="1175" y="-328.9" style="font-family:Times New Roman;font-size:14.00;">&#45;</text>
</g>
<!-- comment&#45;&gt;comment -->
<g id="edge26" class="edge"><title>comment&#45;&gt;comment</title>
<path style="fill:none;stroke:black;" d="M1116,-296C1130,-296 1140,-293 1140,-288 1140,-284 1135,-282 1126,-281"/>
<polygon style="fill:black;stroke:black;" points="1126.3,-277.512 1116,-280 1125.6,-284.478 1126.3,-277.512"/>
<text text-anchor="middle" x="1154" y="-283.9" style="font-family:Times New Roman;font-size:14.00;">[^&#45;]</text>
</g>
<!-- comment2 -->
<g id="node20" class="node"><title>comment2</title>
<ellipse style="fill:none;stroke:black;" cx="1074" cy="-198" rx="61.8445" ry="18"/>
<text text-anchor="middle" x="1074" y="-193.9" style="font-family:Times New Roman;font-size:14.00;">comment2</text>
</g>
<!-- comment&#45;&gt;comment2 -->
<g id="edge24" class="edge"><title>comment&#45;&gt;comment2</title>
<path style="fill:none;stroke:black;" d="M1063,-270C1061,-259 1060,-246 1062,-234 1062,-231 1063,-229 1063,-226"/>
<polygon style="fill:black;stroke:black;" points="1066.48,-226.584 1066,-216 1059.77,-224.573 1066.48,-226.584"/>
<text text-anchor="middle" x="1064" y="-238.9" style="font-family:Times New Roman;font-size:14.00;">&#45;</text>
</g>
<!-- comment2&#45;&gt;comment -->
<g id="edge30" class="edge"><title>comment2&#45;&gt;comment</title>
<path style="fill:none;stroke:black;" d="M1072,-216C1071,-229 1070,-245 1069,-260"/>
<polygon style="fill:black;stroke:black;" points="1065.51,-259.701 1068,-270 1072.48,-260.398 1065.51,-259.701"/>
<text text-anchor="middle" x="1084" y="-238.9" style="font-family:Times New Roman;font-size:14.00;">[^&#45;]</text>
</g>
<!-- comment3 -->
<g id="node23" class="node"><title>comment3</title>
<ellipse style="fill:none;stroke:black;" cx="1074" cy="-108" rx="61.8445" ry="18"/>
<text text-anchor="middle" x="1074" y="-103.9" style="font-family:Times New Roman;font-size:14.00;">comment3</text>
</g>
<!-- comment2&#45;&gt;comment3 -->
<g id="edge28" class="edge"><title>comment2&#45;&gt;comment3</title>
<path style="fill:none;stroke:black;" d="M1074,-180C1074,-167 1074,-151 1074,-136"/>
<polygon style="fill:black;stroke:black;" points="1077.5,-136 1074,-126 1070.5,-136 1077.5,-136"/>
<text text-anchor="middle" x="1076" y="-148.9" style="font-family:Times New Roman;font-size:14.00;">&#45;</text>
</g>
<!-- comment3&#45;&gt;start -->
<g id="edge32" class="edge"><title>comment3&#45;&gt;start</title>
<path style="fill:none;stroke:black;" d="M1053,-125C1037,-139 1017,-159 1003,-180 973,-227 938,-367 938,-423 938,-828 938,-828 938,-828 938,-871 1073,-899 1144,-911"/>
<polygon style="fill:black;stroke:black;" points="1143.51,-914.471 1154,-913 1144.88,-907.607 1143.51,-914.471"/>
<text text-anchor="middle" x="944" y="-508.9" style="font-family:Times New Roman;font-size:14.00;">&gt;</text>
</g>
<!-- comment3&#45;&gt;error -->
<g id="edge34" class="edge"><title>comment3&#45;&gt;error</title>
<path style="fill:none;stroke:black;" d="M1074,-90C1074,-77 1074,-61 1074,-46"/>
<polygon style="fill:black;stroke:black;" points="1077.5,-46 1074,-36 1070.5,-46 1077.5,-46"/>
<text text-anchor="middle" x="1091" y="-58.9" style="font-family:Times New Roman;font-size:14.00;">[^&gt;]</text>
</g>
<!-- cdata1&#45;&gt;error -->
<g id="edge40" class="edge"><title>cdata1&#45;&gt;error</title>
<path style="fill:none;stroke:black;" d="M1424,-362C1407,-349 1385,-328 1372,-306 1315,-205 1396,-131 1312,-54 1298,-41 1184,-28 1119,-22"/>
<polygon style="fill:black;stroke:black;" points="1119.3,-18.5125 1109,-21 1118.6,-25.4778 1119.3,-18.5125"/>
<text text-anchor="middle" x="1377" y="-193.9" style="font-family:Times New Roman;font-size:14.00;">{sonst}</text>
</g>
<!-- cdata -->
<g id="node30" class="node"><title>cdata</title>
<ellipse style="fill:none;stroke:black;" cx="1418" cy="-288" rx="37.0233" ry="18"/>
<text text-anchor="middle" x="1418" y="-283.9" style="font-family:Times New Roman;font-size:14.00;">cdata</text>
</g>
<!-- cdata1&#45;&gt;cdata -->
<g id="edge38" class="edge"><title>cdata1&#45;&gt;cdata</title>
<path style="fill:none;stroke:black;" d="M1440,-360C1436,-347 1431,-330 1427,-316"/>
<polygon style="fill:black;stroke:black;" points="1430.23,-314.573 1424,-306 1423.52,-316.584 1430.23,-314.573"/>
<text text-anchor="middle" x="1456" y="-328.9" style="font-family:Times New Roman;font-size:14.00;">cdata\[</text>
</g>
<!-- cdata&#45;&gt;cdata -->
<g id="edge44" class="edge"><title>cdata&#45;&gt;cdata</title>
<path style="fill:none;stroke:black;" d="M1451,-296C1463,-296 1473,-294 1473,-288 1473,-284 1468,-282 1461,-281"/>
<polygon style="fill:black;stroke:black;" points="1461.3,-277.512 1451,-280 1460.6,-284.478 1461.3,-277.512"/>
<text text-anchor="middle" x="1489" y="-283.9" style="font-family:Times New Roman;font-size:14.00;">[^\]]</text>
</g>
<!-- cdata2 -->
<g id="node33" class="node"><title>cdata2</title>
<ellipse style="fill:none;stroke:black;" cx="1461" cy="-198" rx="43.7776" ry="18"/>
<text text-anchor="middle" x="1461" y="-193.9" style="font-family:Times New Roman;font-size:14.00;">cdata2</text>
</g>
<!-- cdata&#45;&gt;cdata2 -->
<g id="edge42" class="edge"><title>cdata&#45;&gt;cdata2</title>
<path style="fill:none;stroke:black;" d="M1432,-271C1437,-265 1442,-259 1445,-252 1449,-244 1453,-235 1455,-226"/>
<polygon style="fill:black;stroke:black;" points="1458.47,-226.492 1457,-216 1451.61,-225.119 1458.47,-226.492"/>
<text text-anchor="middle" x="1455" y="-238.9" style="font-family:Times New Roman;font-size:14.00;">\[</text>
</g>
<!-- cdata2&#45;&gt;cdata -->
<g id="edge48" class="edge"><title>cdata2&#45;&gt;cdata</title>
<path style="fill:none;stroke:black;" d="M1430,-211C1420,-216 1411,-224 1406,-234 1402,-242 1402,-252 1404,-260"/>
<polygon style="fill:black;stroke:black;" points="1401.04,-262.015 1408,-270 1407.54,-259.415 1401.04,-262.015"/>
<text text-anchor="middle" x="1422" y="-238.9" style="font-family:Times New Roman;font-size:14.00;">[^\]]</text>
</g>
<!-- cdata3 -->
<g id="node36" class="node"><title>cdata3</title>
<ellipse style="fill:none;stroke:black;" cx="1461" cy="-108" rx="43.7776" ry="18"/>
<text text-anchor="middle" x="1461" y="-103.9" style="font-family:Times New Roman;font-size:14.00;">cdata3</text>
</g>
<!-- cdata2&#45;&gt;cdata3 -->
<g id="edge46" class="edge"><title>cdata2&#45;&gt;cdata3</title>
<path style="fill:none;stroke:black;" d="M1461,-180C1461,-167 1461,-151 1461,-136"/>
<polygon style="fill:black;stroke:black;" points="1464.5,-136 1461,-126 1457.5,-136 1464.5,-136"/>
<text text-anchor="middle" x="1466" y="-148.9" style="font-family:Times New Roman;font-size:14.00;">\]</text>
</g>
<!-- cdata3&#45;&gt;start -->
<g id="edge50" class="edge"><title>cdata3&#45;&gt;start</title>
<path style="fill:none;stroke:black;" d="M1478,-125C1491,-138 1507,-158 1514,-180 1544,-271 1532,-305 1499,-396 1489,-422 1480,-425 1467,-450 1432,-512 1419,-526 1395,-594 1363,-679 1395,-715 1346,-792 1314,-841 1257,-880 1220,-900"/>
<polygon style="fill:black;stroke:black;" points="1218.04,-897.084 1211,-905 1221.44,-903.203 1218.04,-897.084"/>
<text text-anchor="middle" x="1440" y="-508.9" style="font-family:Times New Roman;font-size:14.00;">&gt;</text>
</g>
<!-- cdata3&#45;&gt;error -->
<g id="edge52" class="edge"><title>cdata3&#45;&gt;error</title>
<path style="fill:none;stroke:black;" d="M1438,-93C1418,-80 1387,-63 1358,-54 1314,-40 1187,-27 1119,-22"/>
<polygon style="fill:black;stroke:black;" points="1119.3,-18.5125 1109,-21 1118.6,-25.4778 1119.3,-18.5125"/>
<text text-anchor="middle" x="1420" y="-58.9" style="font-family:Times New Roman;font-size:14.00;">[^&gt;]</text>
</g>
<!-- close0&#45;&gt;error -->
<g id="edge58" class="edge"><title>close0&#45;&gt;error</title>
<path style="fill:none;stroke:black;" d="M1251,-630C1237,-573 1196,-393 1196,-243 1196,-243 1196,-243 1196,-108 1196,-67 1151,-42 1115,-29"/>
<polygon style="fill:black;stroke:black;" points="1115.58,-25.5212 1105,-26 1113.57,-32.2259 1115.58,-25.5212"/>
<text text-anchor="middle" x="1220" y="-328.9" style="font-family:Times New Roman;font-size:14.00;">[\w&gt;]</text>
</g>
<!-- close -->
<g id="node43" class="node"><title>close</title>
<ellipse style="fill:none;stroke:black;" cx="1496" cy="-558" rx="34.2406" ry="18"/>
<text text-anchor="middle" x="1496" y="-553.9" style="font-family:Times New Roman;font-size:14.00;">close</text>
</g>
<!-- close0&#45;&gt;close -->
<g id="edge56" class="edge"><title>close0&#45;&gt;close</title>
<path style="fill:none;stroke:black;" d="M1287,-636C1331,-620 1411,-589 1458,-572"/>
<polygon style="fill:black;stroke:black;" points="1459.43,-575.226 1468,-569 1457.42,-568.521 1459.43,-575.226"/>
<text text-anchor="middle" x="1423" y="-598.9" style="font-family:Times New Roman;font-size:14.00;">[^\w&gt;]</text>
</g>
<!-- close&#45;&gt;start -->
<g id="edge64" class="edge"><title>close&#45;&gt;start</title>
<path style="fill:none;stroke:black;" d="M1515,-573C1532,-590 1556,-617 1556,-648 1556,-828 1556,-828 1556,-828 1556,-894 1329,-912 1231,-917"/>
<polygon style="fill:black;stroke:black;" points="1231,-913.5 1221,-917 1231,-920.5 1231,-913.5"/>
<text text-anchor="middle" x="1562" y="-733.9" style="font-family:Times New Roman;font-size:14.00;">&gt;</text>
</g>
<!-- close1 -->
<g id="node46" class="node"><title>close1</title>
<ellipse style="fill:none;stroke:black;" cx="1517" cy="-468" rx="40.9981" ry="18"/>
<text text-anchor="middle" x="1517" y="-463.9" style="font-family:Times New Roman;font-size:14.00;">close1</text>
</g>
<!-- close&#45;&gt;close1 -->
<g id="edge60" class="edge"><title>close&#45;&gt;close1</title>
<path style="fill:none;stroke:black;" d="M1500,-540C1503,-527 1507,-510 1511,-496"/>
<polygon style="fill:black;stroke:black;" points="1514.47,-496.492 1513,-486 1507.61,-495.119 1514.47,-496.492"/>
<text text-anchor="middle" x="1515" y="-508.9" style="font-family:Times New Roman;font-size:14.00;">\w</text>
</g>
<!-- close1&#45;&gt;start -->
<g id="edge66" class="edge"><title>close1&#45;&gt;start</title>
<path style="fill:none;stroke:black;" d="M1542,-483C1566,-498 1596,-524 1596,-558 1596,-828 1596,-828 1596,-828 1596,-870 1556,-867 1517,-882 1465,-900 1309,-911 1231,-915"/>
<polygon style="fill:black;stroke:black;" points="1230.6,-911.522 1221,-916 1231.3,-918.488 1230.6,-911.522"/>
<text text-anchor="middle" x="1602" y="-688.9" style="font-family:Times New Roman;font-size:14.00;">&gt;</text>
</g>
<!-- close1&#45;&gt;error -->
<g id="edge68" class="edge"><title>close1&#45;&gt;error</title>
<path style="fill:none;stroke:black;" d="M1534,-451C1550,-434 1571,-407 1571,-378 1571,-378 1571,-378 1571,-108 1571,-45 1502,-69 1442,-54 1382,-39 1203,-26 1119,-21"/>
<polygon style="fill:black;stroke:black;" points="1119.3,-17.5125 1109,-20 1118.6,-24.4778 1119.3,-17.5125"/>
<text text-anchor="middle" x="1588" y="-238.9" style="font-family:Times New Roman;font-size:14.00;">[^&gt;]</text>
</g>
<!-- close1&#45;&gt;close1 -->
<g id="edge62" class="edge"><title>close1&#45;&gt;close1</title>
<path style="fill:none;stroke:black;" d="M1554,-476C1566,-476 1576,-474 1576,-468 1576,-465 1571,-462 1564,-461"/>
<polygon style="fill:black;stroke:black;" points="1564.3,-457.512 1554,-460 1563.6,-464.478 1564.3,-457.512"/>
<text text-anchor="middle" x="1584" y="-463.9" style="font-family:Times New Roman;font-size:14.00;">\w</text>
</g>
<!-- tag&#45;&gt;error -->
<g id="edge74" class="edge"><title>tag&#45;&gt;error</title>
<path style="fill:none;stroke:black;" d="M755,-630C756,-581 761,-440 767,-324 768,-287 771,-279 771,-243 771,-243 771,-243 771,-108 771,-54 945,-30 1029,-22"/>
<polygon style="fill:black;stroke:black;" points="1029.4,-25.4778 1039,-21 1028.7,-18.5125 1029.4,-25.4778"/>
<text text-anchor="middle" x="856" y="-328.9" style="font-family:Times New Roman;font-size:14.00;">[&lt;&gt;&quot;()=?{\[\]},;.\&#45;#&#39;+*~]</text>
</g>
<!-- tag&#45;&gt;tag -->
<g id="edge80" class="edge"><title>tag&#45;&gt;tag</title>
<path style="fill:none;stroke:black;" d="M779,-656C790,-657 799,-654 799,-648 799,-644 795,-641 789,-640"/>
<polygon style="fill:black;stroke:black;" points="789,-636.5 779,-640 789,-643.5 789,-636.5"/>
<text text-anchor="middle" x="826" y="-643.9" style="font-family:Times New Roman;font-size:14.00;">{sonst}</text>
</g>
<!-- inner -->
<g id="node56" class="node"><title>inner</title>
<ellipse style="fill:none;stroke:black;" cx="636" cy="-558" rx="36.1339" ry="18"/>
<text text-anchor="middle" x="636" y="-553.9" style="font-family:Times New Roman;font-size:14.00;">inner</text>
</g>
<!-- tag&#45;&gt;inner -->
<g id="edge76" class="edge"><title>tag&#45;&gt;inner</title>
<path style="fill:none;stroke:black;" d="M735,-635C725,-628 714,-620 704,-612 690,-601 675,-589 663,-579"/>
<polygon style="fill:black;stroke:black;" points="665.1,-576.2 655,-573 660.9,-581.8 665.1,-576.2"/>
<text text-anchor="middle" x="712" y="-598.9" style="font-family:Times New Roman;font-size:14.00;">\w</text>
</g>
<!-- inner_close -->
<g id="node58" class="node"><title>inner_close</title>
<ellipse style="fill:none;stroke:black;" cx="679" cy="-108" rx="64.1231" ry="18"/>
<text text-anchor="middle" x="679" y="-103.9" style="font-family:Times New Roman;font-size:14.00;">inner_close</text>
</g>
<!-- tag&#45;&gt;inner_close -->
<g id="edge78" class="edge"><title>tag&#45;&gt;inner_close</title>
<path style="fill:none;stroke:black;" d="M748,-630C743,-612 735,-583 735,-558 735,-558 735,-558 735,-423 735,-297 723,-265 692,-144 691,-141 690,-138 689,-136"/>
<polygon style="fill:black;stroke:black;" points="692.226,-134.573 686,-126 685.521,-136.584 692.226,-134.573"/>
<text text-anchor="middle" x="735" y="-373.9" style="font-family:Times New Roman;font-size:14.00;">/</text>
</g>
<!-- inner&#45;&gt;start -->
<g id="edge86" class="edge"><title>inner&#45;&gt;start</title>
<path style="fill:none;stroke:black;" d="M639,-576C642,-594 646,-623 645,-648 645,-828 645,-828 645,-828 646,-879 1014,-906 1143,-915"/>
<polygon style="fill:black;stroke:black;" points="1142.7,-918.488 1153,-916 1143.4,-911.522 1142.7,-918.488"/>
<text text-anchor="middle" x="651" y="-733.9" style="font-family:Times New Roman;font-size:14.00;">&gt;</text>
</g>
<!-- inner&#45;&gt;error -->
<g id="edge82" class="edge"><title>inner&#45;&gt;error</title>
<path style="fill:none;stroke:black;" d="M600,-556C472,-546 46,-495 46,-243 46,-243 46,-243 46,-108 46,22 205,-69 334,-54 469,-37 889,-24 1029,-19"/>
<polygon style="fill:black;stroke:black;" points="1029,-22.5001 1039,-19 1029,-15.5001 1029,-22.5001"/>
<text text-anchor="middle" x="141" y="-283.9" style="font-family:Times New Roman;font-size:14.00;">[&lt;&quot;()=?{\[\]},;.:\&#45;#&#39;+*~]</text>
</g>
<!-- inner&#45;&gt;inner -->
<g id="edge84" class="edge"><title>inner&#45;&gt;inner</title>
<path style="fill:none;stroke:black;" d="M668,-566C680,-567 690,-564 690,-558 690,-554 685,-551 678,-550"/>
<polygon style="fill:black;stroke:black;" points="678,-546.5 668,-550 678,-553.5 678,-546.5"/>
<text text-anchor="middle" x="698" y="-553.9" style="font-family:Times New Roman;font-size:14.00;">\w</text>
</g>
<!-- inner&#45;&gt;inner_close -->
<g id="edge88" class="edge"><title>inner&#45;&gt;inner_close</title>
<path style="fill:none;stroke:black;" d="M647,-541C650,-535 654,-528 656,-522 673,-468 666,-452 671,-396 678,-301 679,-188 679,-136"/>
<polygon style="fill:black;stroke:black;" points="682.5,-136 679,-126 675.5,-136 682.5,-136"/>
<text text-anchor="middle" x="676" y="-328.9" style="font-family:Times New Roman;font-size:14.00;">/</text>
</g>
<!-- attr -->
<g id="node67" class="node"><title>attr</title>
<ellipse style="fill:none;stroke:black;" cx="450" cy="-468" rx="29.1851" ry="18"/>
<text text-anchor="middle" x="450" y="-463.9" style="font-family:Times New Roman;font-size:14.00;">attr</text>
</g>
<!-- inner&#45;&gt;attr -->
<g id="edge94" class="edge"><title>inner&#45;&gt;attr</title>
<path style="fill:none;stroke:black;" d="M610,-545C576,-528 518,-501 482,-483"/>
<polygon style="fill:black;stroke:black;" points="483.56,-479.863 473,-479 480.717,-486.26 483.56,-479.863"/>
<text text-anchor="middle" x="589" y="-508.9" style="font-family:Times New Roman;font-size:14.00;">{sonst}</text>
</g>
<!-- inner_close&#45;&gt;start -->
<g id="edge90" class="edge"><title>inner_close&#45;&gt;start</title>
<path style="fill:none;stroke:black;" d="M632,-121C526,-149 274,-219 261,-234 232,-267 244,-288 244,-333 244,-828 244,-828 244,-828 244,-873 956,-908 1143,-917"/>
<polygon style="fill:black;stroke:black;" points="1143,-920.5 1153,-917 1143,-913.5 1143,-920.5"/>
<text text-anchor="middle" x="250" y="-508.9" style="font-family:Times New Roman;font-size:14.00;">&gt;</text>
</g>
<!-- inner_close&#45;&gt;error -->
<g id="edge92" class="edge"><title>inner_close&#45;&gt;error</title>
<path style="fill:none;stroke:black;" d="M688,-90C695,-78 707,-62 722,-54 748,-40 940,-26 1029,-21"/>
<polygon style="fill:black;stroke:black;" points="1029.4,-24.4778 1039,-20 1028.7,-17.5125 1029.4,-24.4778"/>
<text text-anchor="middle" x="739" y="-58.9" style="font-family:Times New Roman;font-size:14.00;">[^&gt;]</text>
</g>
<!-- attr&#45;&gt;error -->
<g id="edge96" class="edge"><title>attr&#45;&gt;error</title>
<path style="fill:none;stroke:black;" d="M421,-465C373,-459 282,-440 282,-378 282,-378 282,-378 282,-108 282,-32 861,-20 1029,-18"/>
<polygon style="fill:black;stroke:black;" points="1029,-21.5001 1039,-18 1029,-14.5001 1029,-21.5001"/>
<text text-anchor="middle" x="371" y="-238.9" style="font-family:Times New Roman;font-size:14.00;">[&lt;&gt;&quot;()?{\[\]},;.\&#45;#&#39;+*~\s]</text>
</g>
<!-- attr&#45;&gt;attr -->
<g id="edge100" class="edge"><title>attr&#45;&gt;attr</title>
<path style="fill:none;stroke:black;" d="M476,-476C487,-477 497,-474 497,-468 497,-464 492,-461 486,-460"/>
<polygon style="fill:black;stroke:black;" points="486,-456.5 476,-460 486,-463.5 486,-456.5"/>
<text text-anchor="middle" x="525" y="-463.9" style="font-family:Times New Roman;font-size:14.00;">{sonst}</text>
</g>
<!-- attr1 -->
<g id="node70" class="node"><title>attr1</title>
<ellipse style="fill:none;stroke:black;" cx="450" cy="-378" rx="34.9399" ry="18"/>
<text text-anchor="middle" x="450" y="-373.9" style="font-family:Times New Roman;font-size:14.00;">attr1</text>
</g>
<!-- attr&#45;&gt;attr1 -->
<g id="edge98" class="edge"><title>attr&#45;&gt;attr1</title>
<path style="fill:none;stroke:black;" d="M450,-450C450,-437 450,-421 450,-406"/>
<polygon style="fill:black;stroke:black;" points="453.5,-406 450,-396 446.5,-406 453.5,-406"/>
<text text-anchor="middle" x="456" y="-418.9" style="font-family:Times New Roman;font-size:14.00;">=</text>
</g>
<!-- attrQuot -->
<g id="node73" class="node"><title>attrQuot</title>
<ellipse style="fill:none;stroke:black;" cx="363" cy="-288" rx="53.0059" ry="18"/>
<text text-anchor="middle" x="363" y="-283.9" style="font-family:Times New Roman;font-size:14.00;">attrQuot</text>
</g>
<!-- attr1&#45;&gt;attrQuot -->
<g id="edge102" class="edge"><title>attr1&#45;&gt;attrQuot</title>
<path style="fill:none;stroke:black;" d="M434,-361C421,-348 402,-328 386,-312"/>
<polygon style="fill:black;stroke:black;" points="388.546,-309.596 379,-305 383.596,-314.546 388.546,-309.596"/>
<text text-anchor="middle" x="419" y="-328.9" style="font-family:Times New Roman;font-size:14.00;">&quot;</text>
</g>
<!-- attrApos -->
<g id="node78" class="node"><title>attrApos</title>
<ellipse style="fill:none;stroke:black;" cx="533" cy="-288" rx="52.1162" ry="18"/>
<text text-anchor="middle" x="533" y="-283.9" style="font-family:Times New Roman;font-size:14.00;">attrApos</text>
</g>
<!-- attr1&#45;&gt;attrApos -->
<g id="edge108" class="edge"><title>attr1&#45;&gt;attrApos</title>
<path style="fill:none;stroke:black;" d="M465,-361C478,-348 496,-329 510,-313"/>
<polygon style="fill:black;stroke:black;" points="513.049,-314.831 517,-305 507.781,-310.221 513.049,-314.831"/>
<text text-anchor="middle" x="502" y="-328.9" style="font-family:Times New Roman;font-size:14.00;">&#39;</text>
</g>
<!-- attrQuot&#45;&gt;attrQuot -->
<g id="edge104" class="edge"><title>attrQuot&#45;&gt;attrQuot</title>
<path style="fill:none;stroke:black;" d="M410,-296C424,-296 434,-293 434,-288 434,-284 429,-282 420,-281"/>
<polygon style="fill:black;stroke:black;" points="420.299,-277.512 410,-280 419.602,-284.478 420.299,-277.512"/>
<text text-anchor="middle" x="449" y="-283.9" style="font-family:Times New Roman;font-size:14.00;">[^&quot;]</text>
</g>
<!-- attr2 -->
<g id="node76" class="node"><title>attr2</title>
<ellipse style="fill:none;stroke:black;" cx="533" cy="-198" rx="34.9399" ry="18"/>
<text text-anchor="middle" x="533" y="-193.9" style="font-family:Times New Roman;font-size:14.00;">attr2</text>
</g>
<!-- attrQuot&#45;&gt;attr2 -->
<g id="edge106" class="edge"><title>attrQuot&#45;&gt;attr2</title>
<path style="fill:none;stroke:black;" d="M404,-276C423,-270 445,-262 463,-252 479,-243 495,-231 508,-221"/>
<polygon style="fill:black;stroke:black;" points="510.779,-223.219 516,-214 506.169,-217.951 510.779,-223.219"/>
<text text-anchor="middle" x="492" y="-238.9" style="font-family:Times New Roman;font-size:14.00;">&quot;</text>
</g>
<!-- attr2&#45;&gt;error -->
<g id="edge118" class="edge"><title>attr2&#45;&gt;error</title>
<path style="fill:none;stroke:black;" d="M533,-180C533,-156 538,-114 562,-90 605,-46 635,-64 694,-54 813,-32 957,-23 1029,-19"/>
<polygon style="fill:black;stroke:black;" points="1029,-22.5001 1039,-19 1029,-15.5001 1029,-22.5001"/>
<text text-anchor="middle" x="584" y="-103.9" style="font-family:Times New Roman;font-size:14.00;">[^\w/]</text>
</g>
<!-- attr2&#45;&gt;inner -->
<g id="edge116" class="edge"><title>attr2&#45;&gt;inner</title>
<path style="fill:none;stroke:black;" d="M562,-208C587,-219 622,-239 638,-270 661,-313 647,-466 639,-530"/>
<polygon style="fill:black;stroke:black;" points="635.512,-529.701 638,-540 642.478,-530.398 635.512,-529.701"/>
<text text-anchor="middle" x="658" y="-373.9" style="font-family:Times New Roman;font-size:14.00;">\w</text>
</g>
<!-- attr2&#45;&gt;inner_close -->
<g id="edge114" class="edge"><title>attr2&#45;&gt;inner_close</title>
<path style="fill:none;stroke:black;" d="M555,-184C578,-170 616,-147 643,-130"/>
<polygon style="fill:black;stroke:black;" points="644.958,-132.916 652,-125 641.559,-126.797 644.958,-132.916"/>
<text text-anchor="middle" x="622" y="-148.9" style="font-family:Times New Roman;font-size:14.00;">/</text>
</g>
<!-- attrApos&#45;&gt;attr2 -->
<g id="edge112" class="edge"><title>attrApos&#45;&gt;attr2</title>
<path style="fill:none;stroke:black;" d="M533,-270C533,-257 533,-241 533,-226"/>
<polygon style="fill:black;stroke:black;" points="536.5,-226 533,-216 529.5,-226 536.5,-226"/>
<text text-anchor="middle" x="535" y="-238.9" style="font-family:Times New Roman;font-size:14.00;">&#39;</text>
</g>
<!-- attrApos&#45;&gt;attrApos -->
<g id="edge110" class="edge"><title>attrApos&#45;&gt;attrApos</title>
<path style="fill:none;stroke:black;" d="M579,-296C593,-296 603,-293 603,-288 603,-284 598,-282 589,-281"/>
<polygon style="fill:black;stroke:black;" points="589.299,-277.512 579,-280 588.602,-284.478 589.299,-277.512"/>
<text text-anchor="middle" x="616" y="-283.9" style="font-family:Times New Roman;font-size:14.00;">[^&#39;]</text>
</g>
</g>
</svg>
