<?xml version="1.0" encoding="UTF-8" standalone="no"?>
<!DOCTYPE svg PUBLIC "-//W3C//DTD SVG 1.0//EN"
 "http://www.w3.org/TR/2001/REC-SVG-20010904/DTD/svg10.dtd" [
 <!ATTLIST svg xmlns:xlink CDATA #FIXED "http://www.w3.org/1999/xlink">
]>
<!-- Generated by Graphviz version 2.20.2 (Tue Mar &#160;2 19:03:41 UTC 2010)
 -->
<!-- Title: Ausgaben Pages: 1 -->
<svg width="660pt" height="556pt"
 viewBox="0.00 0.00 660.00 556.00" xmlns="http://www.w3.org/2000/svg" xmlns:xlink="http://www.w3.org/1999/xlink">
<g id="graph0" class="graph" transform="scale(1 1) rotate(0) translate(4 552)">
<title>Ausgaben</title>
<polygon style="fill:white;stroke:white;" points="-4,4 -4,-552 656,-552 656,4 -4,4"/>
<!-- NT_ERROR -->
<g id="node1" class="node"><title>NT_ERROR</title>
<ellipse style="fill:none;stroke:black;" cx="480" cy="-70" rx="64.1231" ry="18"/>
<text text-anchor="middle" x="480" y="-65.9" style="font-family:Times New Roman;font-size:14.00;">NT_ERROR</text>
</g>
<!-- NT_ERROR&#45;&gt;NT_ERROR -->
<g id="edge2" class="edge"><title>NT_ERROR&#45;&gt;NT_ERROR</title>
<path style="fill:none;stroke:black;" d="M540,-77C553,-76 562,-74 562,-70 562,-67 558,-65 550,-64"/>
<polygon style="fill:black;stroke:black;" points="550.299,-60.5125 540,-63 549.602,-67.4778 550.299,-60.5125"/>
</g>
<!-- NT_TEXT -->
<g id="node3" class="node"><title>NT_TEXT</title>
<ellipse style="fill:none;stroke:black;" cx="578" cy="-274" rx="55.7874" ry="18"/>
<text text-anchor="middle" x="578" y="-269.9" style="font-family:Times New Roman;font-size:14.00;">NT_TEXT</text>
</g>
<!-- NT_TEXT&#45;&gt;NT_ERROR -->
<g id="edge4" class="edge"><title>NT_TEXT&#45;&gt;NT_ERROR</title>
<path style="fill:none;stroke:black;" d="M569,-256C551,-220 513,-140 493,-97"/>
<polygon style="fill:black;stroke:black;" points="496.26,-95.7166 489,-88 489.863,-98.5596 496.26,-95.7166"/>
</g>
<!-- NT_TEXT&#45;&gt;NT_TEXT -->
<g id="edge6" class="edge"><title>NT_TEXT&#45;&gt;NT_TEXT</title>
<path style="fill:none;stroke:black;" d="M630,-281C643,-280 652,-278 652,-274 652,-271 648,-269 640,-268"/>
<polygon style="fill:black;stroke:black;" points="640.299,-264.512 630,-267 639.602,-271.478 640.299,-264.512"/>
</g>
<!-- NT_COMMENT -->
<g id="node7" class="node"><title>NT_COMMENT</title>
<ellipse style="fill:none;stroke:black;" cx="82" cy="-161" rx="80.8024" ry="18"/>
<text text-anchor="middle" x="82" y="-156.9" style="font-family:Times New Roman;font-size:14.00;">NT_COMMENT</text>
</g>
<!-- NT_TEXT&#45;&gt;NT_COMMENT -->
<g id="edge8" class="edge"><title>NT_TEXT&#45;&gt;NT_COMMENT</title>
<path style="fill:none;stroke:black;" d="M539,-261C457,-239 265,-195 158,-173"/>
<polygon style="fill:black;stroke:black;" points="158.492,-169.529 148,-171 157.119,-176.393 158.492,-169.529"/>
</g>
<!-- NT_TAG -->
<g id="node9" class="node"><title>NT_TAG</title>
<ellipse style="fill:none;stroke:black;" cx="82" cy="-387" rx="50.0315" ry="18"/>
<text text-anchor="middle" x="82" y="-382.9" style="font-family:Times New Roman;font-size:14.00;">NT_TAG</text>
</g>
<!-- NT_TEXT&#45;&gt;NT_TAG -->
<g id="edge10" class="edge"><title>NT_TEXT&#45;&gt;NT_TAG</title>
<path style="fill:none;stroke:black;" d="M526,-281C430,-300 221,-348 129,-372"/>
<polygon style="fill:black;stroke:black;" points="127.573,-368.774 119,-375 129.584,-375.479 127.573,-368.774"/>
</g>
<!-- NT_END_TAG -->
<g id="node11" class="node"><title>NT_END_TAG</title>
<ellipse style="fill:none;stroke:black;" cx="259" cy="-529" rx="77.1319" ry="18"/>
<text text-anchor="middle" x="259" y="-524.9" style="font-family:Times New Roman;font-size:14.00;">NT_END_TAG</text>
</g>
<!-- NT_TEXT&#45;&gt;NT_END_TAG -->
<g id="edge12" class="edge"><title>NT_TEXT&#45;&gt;NT_END_TAG</title>
<path style="fill:none;stroke:black;" d="M551,-290C490,-333 341,-453 283,-504"/>
<polygon style="fill:black;stroke:black;" points="280.221,-501.781 275,-511 284.831,-507.049 280.221,-501.781"/>
</g>
<!-- NT_PI -->
<g id="node13" class="node"><title>NT_PI</title>
<ellipse style="fill:none;stroke:black;" cx="480" cy="-478" rx="39.1069" ry="18"/>
<text text-anchor="middle" x="480" y="-473.9" style="font-family:Times New Roman;font-size:14.00;">NT_PI</text>
</g>
<!-- NT_TEXT&#45;&gt;NT_PI -->
<g id="edge14" class="edge"><title>NT_TEXT&#45;&gt;NT_PI</title>
<path style="fill:none;stroke:black;" d="M564,-292C543,-327 504,-408 488,-451"/>
<polygon style="fill:black;stroke:black;" points="484.863,-449.44 484,-460 491.26,-452.283 484.863,-449.44"/>
</g>
<!-- NT_COMMENT&#45;&gt;NT_ERROR -->
<g id="edge16" class="edge"><title>NT_COMMENT&#45;&gt;NT_ERROR</title>
<path style="fill:none;stroke:black;" d="M139,-148C213,-131 344,-101 420,-83"/>
<polygon style="fill:black;stroke:black;" points="420.881,-86.3933 430,-81 419.508,-79.5292 420.881,-86.3933"/>
</g>
<!-- NT_COMMENT&#45;&gt;NT_TEXT -->
<g id="edge18" class="edge"><title>NT_COMMENT&#45;&gt;NT_TEXT</title>
<path style="fill:none;stroke:black;" d="M129,-176C220,-199 417,-244 517,-264"/>
<polygon style="fill:black;stroke:black;" points="516.508,-267.471 527,-266 517.881,-260.607 516.508,-267.471"/>
</g>
<!-- NT_COMMENT&#45;&gt;NT_COMMENT -->
<g id="edge20" class="edge"><title>NT_COMMENT&#45;&gt;NT_COMMENT</title>
<path style="fill:none;stroke:black;" d="M158,-167C172,-167 181,-164 181,-161 181,-159 176,-157 168,-156"/>
<polygon style="fill:black;stroke:black;" points="168.299,-152.512 158,-155 167.602,-159.478 168.299,-152.512"/>
</g>
<!-- NT_COMMENT&#45;&gt;NT_TAG -->
<g id="edge22" class="edge"><title>NT_COMMENT&#45;&gt;NT_TAG</title>
<path style="fill:none;stroke:black;" d="M78,-179C74,-219 74,-311 77,-359"/>
<polygon style="fill:black;stroke:black;" points="73.5222,-359.398 78,-369 80.4875,-358.701 73.5222,-359.398"/>
</g>
<!-- NT_COMMENT&#45;&gt;NT_END_TAG -->
<g id="edge24" class="edge"><title>NT_COMMENT&#45;&gt;NT_END_TAG</title>
<path style="fill:none;stroke:black;" d="M87,-179C110,-238 203,-431 242,-502"/>
<polygon style="fill:black;stroke:black;" points="239.084,-503.958 247,-511 245.203,-500.559 239.084,-503.958"/>
</g>
<!-- NT_COMMENT&#45;&gt;NT_PI -->
<g id="edge26" class="edge"><title>NT_COMMENT&#45;&gt;NT_PI</title>
<path style="fill:none;stroke:black;" d="M99,-179C161,-233 369,-399 449,-457"/>
<polygon style="fill:black;stroke:black;" points="446.9,-459.8 457,-463 451.1,-454.2 446.9,-459.8"/>
</g>
<!-- NT_TAG&#45;&gt;NT_ERROR -->
<g id="edge28" class="edge"><title>NT_TAG&#45;&gt;NT_ERROR</title>
<path style="fill:none;stroke:black;" d="M103,-370C170,-318 374,-155 450,-93"/>
<polygon style="fill:black;stroke:black;" points="452.1,-95.8 458,-87 447.9,-90.2 452.1,-95.8"/>
</g>
<!-- NT_TAG&#45;&gt;NT_TEXT -->
<g id="edge30" class="edge"><title>NT_TAG&#45;&gt;NT_TEXT</title>
<path style="fill:none;stroke:black;" d="M129,-380C222,-362 431,-314 527,-290"/>
<polygon style="fill:black;stroke:black;" points="528.427,-293.226 537,-287 526.416,-286.521 528.427,-293.226"/>
</g>
<!-- NT_TAG&#45;&gt;NT_COMMENT -->
<g id="edge32" class="edge"><title>NT_TAG&#45;&gt;NT_COMMENT</title>
<path style="fill:none;stroke:black;" d="M86,-369C90,-329 90,-237 87,-189"/>
<polygon style="fill:black;stroke:black;" points="90.4778,-188.602 86,-179 83.5125,-189.299 90.4778,-188.602"/>
</g>
<!-- NT_TAG&#45;&gt;NT_TAG -->
<g id="edge34" class="edge"><title>NT_TAG&#45;&gt;NT_TAG</title>
<path style="fill:none;stroke:black;" d="M128,-394C141,-393 150,-391 150,-387 150,-384 146,-382 138,-381"/>
<polygon style="fill:black;stroke:black;" points="138.299,-377.512 128,-380 137.602,-384.478 138.299,-377.512"/>
</g>
<!-- NT_TAG&#45;&gt;NT_END_TAG -->
<g id="edge36" class="edge"><title>NT_TAG&#45;&gt;NT_END_TAG</title>
<path style="fill:none;stroke:black;" d="M97,-404C124,-430 182,-478 221,-506"/>
<polygon style="fill:black;stroke:black;" points="219.738,-509.365 230,-512 223.621,-503.541 219.738,-509.365"/>
</g>
<!-- NT_TAG&#45;&gt;NT_PI -->
<g id="edge40" class="edge"><title>NT_TAG&#45;&gt;NT_PI</title>
<path style="fill:none;stroke:black;" d="M118,-399C190,-419 351,-456 432,-471"/>
<polygon style="fill:black;stroke:black;" points="431.508,-474.471 442,-473 432.881,-467.607 431.508,-474.471"/>
</g>
<!-- NT_ATTR -->
<g id="node26" class="node"><title>NT_ATTR</title>
<ellipse style="fill:none;stroke:black;" cx="259" cy="-19" rx="55.0898" ry="18"/>
<text text-anchor="middle" x="259" y="-14.9" style="font-family:Times New Roman;font-size:14.00;">NT_ATTR</text>
</g>
<!-- NT_TAG&#45;&gt;NT_ATTR -->
<g id="edge38" class="edge"><title>NT_TAG&#45;&gt;NT_ATTR</title>
<path style="fill:none;stroke:black;" d="M91,-369C120,-310 211,-118 246,-46"/>
<polygon style="fill:black;stroke:black;" points="249.137,-47.5596 250,-37 242.74,-44.7166 249.137,-47.5596"/>
</g>
<!-- NT_END_TAG&#45;&gt;NT_ERROR -->
<g id="edge42" class="edge"><title>NT_END_TAG&#45;&gt;NT_ERROR</title>
<path style="fill:none;stroke:black;" d="M268,-511C302,-440 426,-182 467,-97"/>
<polygon style="fill:black;stroke:black;" points="470.137,-98.5596 471,-88 463.74,-95.7166 470.137,-98.5596"/>
</g>
<!-- NT_END_TAG&#45;&gt;NT_TEXT -->
<g id="edge44" class="edge"><title>NT_END_TAG&#45;&gt;NT_TEXT</title>
<path style="fill:none;stroke:black;" d="M286,-512C346,-468 495,-349 553,-298"/>
<polygon style="fill:black;stroke:black;" points="555.779,-300.219 561,-291 551.169,-294.951 555.779,-300.219"/>
</g>
<!-- NT_END_TAG&#45;&gt;NT_COMMENT -->
<g id="edge46" class="edge"><title>NT_END_TAG&#45;&gt;NT_COMMENT</title>
<path style="fill:none;stroke:black;" d="M253,-511C229,-451 137,-259 99,-188"/>
<polygon style="fill:black;stroke:black;" points="101.916,-186.042 94,-179 95.7969,-189.441 101.916,-186.042"/>
</g>
<!-- NT_END_TAG&#45;&gt;NT_TAG -->
<g id="edge48" class="edge"><title>NT_END_TAG&#45;&gt;NT_TAG</title>
<path style="fill:none;stroke:black;" d="M243,-511C215,-485 155,-436 117,-408"/>
<polygon style="fill:black;stroke:black;" points="119.1,-405.2 109,-402 114.9,-410.8 119.1,-405.2"/>
</g>
<!-- NT_END_TAG&#45;&gt;NT_END_TAG -->
<g id="edge50" class="edge"><title>NT_END_TAG&#45;&gt;NT_END_TAG</title>
<path style="fill:none;stroke:black;" d="M331,-535C345,-535 354,-532 354,-529 354,-527 349,-525 341,-524"/>
<polygon style="fill:black;stroke:black;" points="341.299,-520.512 331,-523 340.602,-527.478 341.299,-520.512"/>
</g>
<!-- NT_END_TAG&#45;&gt;NT_PI -->
<g id="edge52" class="edge"><title>NT_END_TAG&#45;&gt;NT_PI</title>
<path style="fill:none;stroke:black;" d="M325,-520C362,-512 408,-501 440,-492"/>
<polygon style="fill:black;stroke:black;" points="441.427,-495.226 450,-489 439.416,-488.521 441.427,-495.226"/>
</g>
<!-- NT_PI&#45;&gt;NT_ERROR -->
<g id="edge66" class="edge"><title>NT_PI&#45;&gt;NT_ERROR</title>
<path style="fill:none;stroke:black;" d="M480,-460C480,-396 480,-177 480,-98"/>
<polygon style="fill:black;stroke:black;" points="483.5,-98 480,-88 476.5,-98 483.5,-98"/>
</g>
<!-- NT_PI&#45;&gt;NT_TEXT -->
<g id="edge68" class="edge"><title>NT_PI&#45;&gt;NT_TEXT</title>
<path style="fill:none;stroke:black;" d="M492,-461C512,-426 552,-344 569,-302"/>
<polygon style="fill:black;stroke:black;" points="572.536,-302.585 573,-292 566.036,-299.985 572.536,-302.585"/>
</g>
<!-- NT_PI&#45;&gt;NT_COMMENT -->
<g id="edge70" class="edge"><title>NT_PI&#45;&gt;NT_COMMENT</title>
<path style="fill:none;stroke:black;" d="M464,-461C404,-409 200,-246 118,-184"/>
<polygon style="fill:black;stroke:black;" points="119.262,-180.635 109,-178 115.379,-186.459 119.262,-180.635"/>
</g>
<!-- NT_PI&#45;&gt;NT_TAG -->
<g id="edge72" class="edge"><title>NT_PI&#45;&gt;NT_TAG</title>
<path style="fill:none;stroke:black;" d="M449,-467C382,-449 224,-412 139,-395"/>
<polygon style="fill:black;stroke:black;" points="139.492,-391.529 129,-393 138.119,-398.393 139.492,-391.529"/>
</g>
<!-- NT_PI&#45;&gt;NT_END_TAG -->
<g id="edge74" class="edge"><title>NT_PI&#45;&gt;NT_END_TAG</title>
<path style="fill:none;stroke:black;" d="M442,-481C405,-487 350,-500 310,-511"/>
<polygon style="fill:black;stroke:black;" points="308.573,-507.774 300,-514 310.584,-514.479 308.573,-507.774"/>
</g>
<!-- NT_PI&#45;&gt;NT_PI -->
<g id="edge76" class="edge"><title>NT_PI&#45;&gt;NT_PI</title>
<path style="fill:none;stroke:black;" d="M516,-485C528,-485 537,-482 537,-478 537,-475 533,-473 526,-472"/>
<polygon style="fill:black;stroke:black;" points="526.299,-468.512 516,-471 525.602,-475.478 526.299,-468.512"/>
</g>
<!-- NT_ATTR&#45;&gt;NT_ERROR -->
<g id="edge54" class="edge"><title>NT_ATTR&#45;&gt;NT_ERROR</title>
<path style="fill:none;stroke:black;" d="M304,-29C338,-37 384,-48 421,-56"/>
<polygon style="fill:black;stroke:black;" points="420.508,-59.4708 431,-58 421.881,-52.6067 420.508,-59.4708"/>
</g>
<!-- NT_ATTR&#45;&gt;NT_TEXT -->
<g id="edge56" class="edge"><title>NT_ATTR&#45;&gt;NT_TEXT</title>
<path style="fill:none;stroke:black;" d="M280,-36C336,-80 485,-200 549,-251"/>
<polygon style="fill:black;stroke:black;" points="546.9,-253.8 557,-257 551.1,-248.2 546.9,-253.8"/>
</g>
<!-- NT_ATTR&#45;&gt;NT_COMMENT -->
<g id="edge58" class="edge"><title>NT_ATTR&#45;&gt;NT_COMMENT</title>
<path style="fill:none;stroke:black;" d="M238,-36C207,-61 148,-108 112,-137"/>
<polygon style="fill:black;stroke:black;" points="109.9,-134.2 104,-143 114.1,-139.8 109.9,-134.2"/>
</g>
<!-- NT_ATTR&#45;&gt;NT_END_TAG -->
<g id="edge60" class="edge"><title>NT_ATTR&#45;&gt;NT_END_TAG</title>
<path style="fill:none;stroke:black;" d="M259,-37C259,-113 259,-407 259,-501"/>
<polygon style="fill:black;stroke:black;" points="255.5,-501 259,-511 262.5,-501 255.5,-501"/>
</g>
<!-- NT_ATTR&#45;&gt;NT_PI -->
<g id="edge64" class="edge"><title>NT_ATTR&#45;&gt;NT_PI</title>
<path style="fill:none;stroke:black;" d="M268,-37C302,-108 426,-366 467,-451"/>
<polygon style="fill:black;stroke:black;" points="463.74,-452.283 471,-460 470.137,-449.44 463.74,-452.283"/>
</g>
<!-- NT_ATTR&#45;&gt;NT_ATTR -->
<g id="edge62" class="edge"><title>NT_ATTR&#45;&gt;NT_ATTR</title>
<path style="fill:none;stroke:black;" d="M310,-26C323,-25 332,-23 332,-19 332,-16 328,-14 320,-13"/>
<polygon style="fill:black;stroke:black;" points="320.299,-9.5125 310,-12 319.602,-16.4778 320.299,-9.5125"/>
</g>
</g>
</svg>
